<svg width="391" height="201" viewBox="0 0 391 201" fill="none" xmlns="http://www.w3.org/2000/svg">
<path d="M59.856 30V15.624H54.264V13.08H68.544V15.624H62.952V30H59.856ZM68.5924 30V20.976C68.5924 20.464 68.5764 19.944 68.5444 19.416C68.5284 18.888 68.4884 18.376 68.4244 17.88H71.3284L71.6644 21.192H71.1844C71.3444 20.392 71.6084 19.728 71.9764 19.2C72.3604 18.672 72.8244 18.28 73.3684 18.024C73.9124 17.768 74.5044 17.64 75.1444 17.64C75.4324 17.64 75.6644 17.656 75.8404 17.688C76.0164 17.704 76.1924 17.744 76.3684 17.808L76.3444 20.448C76.0404 20.32 75.7764 20.24 75.5524 20.208C75.3444 20.176 75.0804 20.16 74.7604 20.16C74.0724 20.16 73.4884 20.304 73.0084 20.592C72.5444 20.88 72.1924 21.28 71.9524 21.792C71.7284 22.304 71.6164 22.888 71.6164 23.544V30H68.5924ZM82.6011 30.24C81.5451 30.24 80.6171 29.992 79.8171 29.496C79.0171 28.984 78.3931 28.256 77.9451 27.312C77.4971 26.368 77.2731 25.24 77.2731 23.928C77.2731 22.616 77.4971 21.496 77.9451 20.568C78.3931 19.624 79.0171 18.904 79.8171 18.408C80.6171 17.896 81.5451 17.64 82.6011 17.64C83.6251 17.64 84.5211 17.896 85.2891 18.408C86.0731 18.904 86.5931 19.576 86.8491 20.424H86.5851L86.8491 17.88H89.7291C89.6811 18.376 89.6331 18.88 89.5851 19.392C89.5531 19.904 89.5371 20.408 89.5371 20.904V30H86.5611L86.5371 27.504H86.8251C86.5691 28.336 86.0491 29 85.2651 29.496C84.4811 29.992 83.5931 30.24 82.6011 30.24ZM83.4411 27.936C84.3851 27.936 85.1451 27.608 85.7211 26.952C86.2971 26.28 86.5851 25.272 86.5851 23.928C86.5851 22.584 86.2971 21.584 85.7211 20.928C85.1451 20.272 84.3851 19.944 83.4411 19.944C82.4971 19.944 81.7371 20.272 81.1611 20.928C80.5851 21.584 80.2971 22.584 80.2971 23.928C80.2971 25.272 80.5771 26.28 81.1371 26.952C81.7131 27.608 82.4811 27.936 83.4411 27.936ZM93.6199 30V20.136H91.2919V17.88H94.4599L93.6199 18.648V16.8C93.6199 15.296 94.0039 14.16 94.7719 13.392C95.5559 12.624 96.6999 12.24 98.2039 12.24C98.5559 12.24 98.9239 12.264 99.3079 12.312C99.7079 12.36 100.052 12.448 100.34 12.576V14.928C100.132 14.848 99.8839 14.784 99.5959 14.736C99.3079 14.688 99.0279 14.664 98.7559 14.664C98.3399 14.664 97.9639 14.744 97.6279 14.904C97.3079 15.064 97.0519 15.312 96.8599 15.648C96.6839 15.968 96.5959 16.4 96.5959 16.944V18.408L96.1639 17.88H99.7879V20.136H96.6199V30H93.6199ZM106.203 30.24C105.147 30.24 104.219 29.992 103.419 29.496C102.619 28.984 101.995 28.256 101.547 27.312C101.099 26.368 100.875 25.24 100.875 23.928C100.875 22.616 101.099 21.496 101.547 20.568C101.995 19.624 102.619 18.904 103.419 18.408C104.219 17.896 105.147 17.64 106.203 17.64C107.227 17.64 108.123 17.896 108.891 18.408C109.675 18.904 110.195 19.576 110.451 20.424H110.187L110.451 17.88H113.331C113.283 18.376 113.235 18.88 113.187 19.392C113.155 19.904 113.139 20.408 113.139 20.904V30H110.163L110.139 27.504H110.427C110.171 28.336 109.651 29 108.867 29.496C108.083 29.992 107.195 30.24 106.203 30.24ZM107.043 27.936C107.987 27.936 108.747 27.608 109.323 26.952C109.899 26.28 110.187 25.272 110.187 23.928C110.187 22.584 109.899 21.584 109.323 20.928C108.747 20.272 107.987 19.944 107.043 19.944C106.099 19.944 105.339 20.272 104.763 20.928C104.187 21.584 103.899 22.584 103.899 23.928C103.899 25.272 104.179 26.28 104.739 26.952C105.315 27.608 106.083 27.936 107.043 27.936ZM116.405 30V12.336H119.405V30H116.405ZM128.279 35.376C127.159 35.376 126.143 35.256 125.231 35.016C124.335 34.776 123.535 34.408 122.831 33.912L123.479 31.752C123.943 32.056 124.423 32.304 124.919 32.496C125.415 32.688 125.927 32.832 126.455 32.928C126.983 33.024 127.519 33.072 128.063 33.072C129.183 33.072 130.015 32.792 130.559 32.232C131.119 31.688 131.399 30.904 131.399 29.88V26.976H131.639C131.383 27.808 130.863 28.472 130.079 28.968C129.311 29.464 128.423 29.712 127.415 29.712C126.327 29.712 125.375 29.472 124.559 28.992C123.759 28.496 123.135 27.792 122.687 26.88C122.239 25.968 122.015 24.896 122.015 23.664C122.015 22.432 122.239 21.368 122.687 20.472C123.135 19.56 123.759 18.864 124.559 18.384C125.375 17.888 126.327 17.64 127.415 17.64C128.439 17.64 129.327 17.888 130.079 18.384C130.847 18.864 131.359 19.52 131.615 20.352L131.399 20.208L131.639 17.88H134.543C134.479 18.376 134.431 18.88 134.399 19.392C134.367 19.904 134.351 20.408 134.351 20.904V29.52C134.351 31.424 133.831 32.872 132.791 33.864C131.767 34.872 130.263 35.376 128.279 35.376ZM128.231 27.408C129.191 27.408 129.951 27.088 130.511 26.448C131.087 25.792 131.375 24.864 131.375 23.664C131.375 22.464 131.087 21.544 130.511 20.904C129.951 20.264 129.191 19.944 128.231 19.944C127.255 19.944 126.479 20.264 125.903 20.904C125.327 21.544 125.039 22.464 125.039 23.664C125.039 24.864 125.327 25.792 125.903 26.448C126.479 27.088 127.255 27.408 128.231 27.408ZM142.273 30.24C141.217 30.24 140.289 29.992 139.489 29.496C138.689 28.984 138.065 28.256 137.617 27.312C137.169 26.368 136.945 25.24 136.945 23.928C136.945 22.616 137.169 21.496 137.617 20.568C138.065 19.624 138.689 18.904 139.489 18.408C140.289 17.896 141.217 17.64 142.273 17.64C143.297 17.64 144.193 17.896 144.961 18.408C145.745 18.904 146.265 19.576 146.521 20.424H146.257L146.521 17.88H149.401C149.353 18.376 149.305 18.88 149.257 19.392C149.225 19.904 149.209 20.408 149.209 20.904V30H146.233L146.209 27.504H146.497C146.241 28.336 145.721 29 144.937 29.496C144.153 29.992 143.265 30.24 142.273 30.24ZM143.113 27.936C144.057 27.936 144.817 27.608 145.393 26.952C145.969 26.28 146.257 25.272 146.257 23.928C146.257 22.584 145.969 21.584 145.393 20.928C144.817 20.272 144.057 19.944 143.113 19.944C142.169 19.944 141.409 20.272 140.833 20.928C140.257 21.584 139.969 22.584 139.969 23.928C139.969 25.272 140.249 26.28 140.809 26.952C141.385 27.608 142.153 27.936 143.113 27.936ZM152.452 30V20.976C152.452 20.464 152.436 19.944 152.404 19.416C152.388 18.888 152.348 18.376 152.284 17.88H155.188L155.524 21.192H155.044C155.204 20.392 155.468 19.728 155.836 19.2C156.22 18.672 156.684 18.28 157.228 18.024C157.772 17.768 158.364 17.64 159.004 17.64C159.292 17.64 159.524 17.656 159.7 17.688C159.876 17.704 160.052 17.744 160.228 17.808L160.204 20.448C159.9 20.32 159.636 20.24 159.412 20.208C159.204 20.176 158.94 20.16 158.62 20.16C157.932 20.16 157.348 20.304 156.868 20.592C156.404 20.88 156.052 21.28 155.812 21.792C155.588 22.304 155.476 22.888 155.476 23.544V30H152.452Z" fill="white"/>
<circle cx="21.5" cy="20.5" r="20.5" fill="white"/>
<path d="M20.344 15.244H14.312V12.488H29.782V15.244H23.724V31H20.344V15.244Z" fill="#5B9BF3"/>
<path d="M4.788 79V67.282H0.18V66.31H10.494V67.282H5.904V79H4.788ZM10.8451 79V72.088C10.8451 71.74 10.8331 71.392 10.8091 71.044C10.7971 70.684 10.7671 70.33 10.7191 69.982H11.7991L11.9431 72.052L11.7271 72.07C11.8471 71.566 12.0631 71.152 12.3751 70.828C12.6871 70.492 13.0471 70.24 13.4551 70.072C13.8631 69.904 14.2831 69.82 14.7151 69.82C14.8711 69.82 15.0151 69.832 15.1471 69.856C15.2911 69.868 15.4231 69.892 15.5431 69.928L15.5071 70.918C15.3631 70.87 15.2191 70.84 15.0751 70.828C14.9311 70.816 14.7751 70.81 14.6071 70.81C14.0671 70.81 13.5931 70.942 13.1851 71.206C12.7891 71.47 12.4831 71.806 12.2671 72.214C12.0511 72.622 11.9431 73.036 11.9431 73.456V79H10.8451ZM20.4706 79.144C19.6546 79.144 18.9466 78.958 18.3466 78.586C17.7466 78.214 17.2846 77.68 16.9606 76.984C16.6366 76.288 16.4746 75.454 16.4746 74.482C16.4746 73.51 16.6366 72.682 16.9606 71.998C17.2966 71.302 17.7646 70.768 18.3646 70.396C18.9646 70.012 19.6666 69.82 20.4706 69.82C21.2986 69.82 22.0126 70.036 22.6126 70.468C23.2246 70.9 23.6266 71.488 23.8186 72.232H23.6026L23.7826 69.982H24.8446C24.8086 70.33 24.7726 70.672 24.7366 71.008C24.7126 71.344 24.7006 71.674 24.7006 71.998V79H23.6026V76.75H23.8006C23.6086 77.494 23.2066 78.082 22.5946 78.514C21.9946 78.934 21.2866 79.144 20.4706 79.144ZM20.6146 78.208C21.5386 78.208 22.2706 77.89 22.8106 77.254C23.3506 76.618 23.6206 75.694 23.6206 74.482C23.6206 73.27 23.3506 72.346 22.8106 71.71C22.2706 71.074 21.5386 70.756 20.6146 70.756C19.6906 70.756 18.9526 71.074 18.4006 71.71C17.8606 72.346 17.5906 73.27 17.5906 74.482C17.5906 75.694 17.8606 76.618 18.4006 77.254C18.9526 77.89 19.6906 78.208 20.6146 78.208ZM28.1174 79V70.864H26.3174V69.982H28.3874L28.1174 70.27V68.704C28.1174 67.744 28.3574 67 28.8374 66.472C29.3174 65.944 30.0014 65.68 30.8894 65.68C31.1174 65.68 31.3514 65.704 31.5914 65.752C31.8314 65.788 32.0294 65.836 32.1854 65.896V66.868C32.0414 66.808 31.8674 66.754 31.6634 66.706C31.4594 66.658 31.2434 66.634 31.0154 66.634C30.6194 66.634 30.2834 66.718 30.0074 66.886C29.7434 67.054 29.5394 67.3 29.3954 67.624C29.2634 67.936 29.1974 68.338 29.1974 68.83V70.27L29.0174 69.982H31.7894V70.864H29.2154V79H28.1174ZM36.8535 79.144C36.0375 79.144 35.3295 78.958 34.7295 78.586C34.1295 78.214 33.6675 77.68 33.3435 76.984C33.0195 76.288 32.8575 75.454 32.8575 74.482C32.8575 73.51 33.0195 72.682 33.3435 71.998C33.6795 71.302 34.1475 70.768 34.7475 70.396C35.3475 70.012 36.0495 69.82 36.8535 69.82C37.6815 69.82 38.3955 70.036 38.9955 70.468C39.6075 70.9 40.0095 71.488 40.2015 72.232H39.9855L40.1655 69.982H41.2275C41.1915 70.33 41.1555 70.672 41.1195 71.008C41.0955 71.344 41.0835 71.674 41.0835 71.998V79H39.9855V76.75H40.1835C39.9915 77.494 39.5895 78.082 38.9775 78.514C38.3775 78.934 37.6695 79.144 36.8535 79.144ZM36.9975 78.208C37.9215 78.208 38.6535 77.89 39.1935 77.254C39.7335 76.618 40.0035 75.694 40.0035 74.482C40.0035 73.27 39.7335 72.346 39.1935 71.71C38.6535 71.074 37.9215 70.756 36.9975 70.756C36.0735 70.756 35.3355 71.074 34.7835 71.71C34.2435 72.346 33.9735 73.27 33.9735 74.482C33.9735 75.694 34.2435 76.618 34.7835 77.254C35.3355 77.89 36.0735 78.208 36.9975 78.208ZM44.0682 79V65.752H45.1662V79H44.0682ZM52.0519 83.014C51.2959 83.014 50.5879 82.912 49.9279 82.708C49.2799 82.504 48.6979 82.198 48.1819 81.79L48.5779 80.944C48.9619 81.22 49.3279 81.436 49.6759 81.592C50.0359 81.76 50.4079 81.88 50.7919 81.952C51.1759 82.036 51.5899 82.078 52.0339 82.078C52.9459 82.078 53.6359 81.832 54.1039 81.34C54.5719 80.86 54.8059 80.164 54.8059 79.252V76.39H55.0039C54.8119 77.146 54.4099 77.74 53.7979 78.172C53.1859 78.592 52.4659 78.802 51.6379 78.802C50.8099 78.802 50.0899 78.622 49.4779 78.262C48.8779 77.89 48.4099 77.368 48.0739 76.696C47.7499 76.012 47.5879 75.214 47.5879 74.302C47.5879 73.39 47.7499 72.598 48.0739 71.926C48.4099 71.254 48.8779 70.738 49.4779 70.378C50.0899 70.006 50.8099 69.82 51.6379 69.82C52.4659 69.82 53.1859 70.036 53.7979 70.468C54.4099 70.888 54.8119 71.482 55.0039 72.25L54.8059 72.052L54.9679 69.982H56.0479C55.9999 70.33 55.9639 70.672 55.9399 71.008C55.9159 71.344 55.9039 71.674 55.9039 71.998V79.09C55.9039 80.386 55.5739 81.364 54.9139 82.024C54.2659 82.684 53.3119 83.014 52.0519 83.014ZM51.7639 77.866C52.6999 77.866 53.4379 77.554 53.9779 76.93C54.5299 76.306 54.8059 75.43 54.8059 74.302C54.8059 73.186 54.5299 72.316 53.9779 71.692C53.4379 71.068 52.6999 70.756 51.7639 70.756C50.8279 70.756 50.0839 71.068 49.5319 71.692C48.9799 72.316 48.7039 73.186 48.7039 74.302C48.7039 75.43 48.9799 76.306 49.5319 76.93C50.0839 77.554 50.8279 77.866 51.7639 77.866ZM62.289 79.144C61.473 79.144 60.765 78.958 60.165 78.586C59.565 78.214 59.103 77.68 58.779 76.984C58.455 76.288 58.293 75.454 58.293 74.482C58.293 73.51 58.455 72.682 58.779 71.998C59.115 71.302 59.583 70.768 60.183 70.396C60.783 70.012 61.485 69.82 62.289 69.82C63.117 69.82 63.831 70.036 64.431 70.468C65.043 70.9 65.445 71.488 65.637 72.232H65.421L65.601 69.982H66.663C66.627 70.33 66.591 70.672 66.555 71.008C66.531 71.344 66.519 71.674 66.519 71.998V79H65.421V76.75H65.619C65.427 77.494 65.025 78.082 64.413 78.514C63.813 78.934 63.105 79.144 62.289 79.144ZM62.433 78.208C63.357 78.208 64.089 77.89 64.629 77.254C65.169 76.618 65.439 75.694 65.439 74.482C65.439 73.27 65.169 72.346 64.629 71.71C64.089 71.074 63.357 70.756 62.433 70.756C61.509 70.756 60.771 71.074 60.219 71.71C59.679 72.346 59.409 73.27 59.409 74.482C59.409 75.694 59.679 76.618 60.219 77.254C60.771 77.89 61.509 78.208 62.433 78.208ZM69.4858 79V72.088C69.4858 71.74 69.4738 71.392 69.4498 71.044C69.4378 70.684 69.4078 70.33 69.3598 69.982H70.4398L70.5838 72.052L70.3678 72.07C70.4878 71.566 70.7038 71.152 71.0158 70.828C71.3278 70.492 71.6878 70.24 72.0958 70.072C72.5038 69.904 72.9238 69.82 73.3558 69.82C73.5118 69.82 73.6558 69.832 73.7878 69.856C73.9318 69.868 74.0638 69.892 74.1838 69.928L74.1478 70.918C74.0038 70.87 73.8598 70.84 73.7158 70.828C73.5718 70.816 73.4158 70.81 73.2478 70.81C72.7078 70.81 72.2338 70.942 71.8258 71.206C71.4298 71.47 71.1238 71.806 70.9078 72.214C70.6918 72.622 70.5838 73.036 70.5838 73.456V79H69.4858ZM80.367 82.888V71.998C80.367 71.674 80.355 71.344 80.331 71.008C80.307 70.672 80.271 70.33 80.223 69.982H81.303L81.483 72.232H81.267C81.471 71.488 81.867 70.9 82.455 70.468C83.043 70.036 83.757 69.82 84.597 69.82C85.413 69.82 86.115 70.012 86.703 70.396C87.303 70.768 87.771 71.302 88.107 71.998C88.443 72.682 88.611 73.51 88.611 74.482C88.611 75.454 88.443 76.288 88.107 76.984C87.783 77.68 87.321 78.214 86.721 78.586C86.121 78.958 85.413 79.144 84.597 79.144C83.769 79.144 83.055 78.934 82.455 78.514C81.867 78.082 81.471 77.494 81.267 76.75H81.465V82.888H80.367ZM84.453 78.208C85.377 78.208 86.115 77.89 86.667 77.254C87.219 76.618 87.495 75.694 87.495 74.482C87.495 73.27 87.219 72.346 86.667 71.71C86.115 71.074 85.377 70.756 84.453 70.756C83.541 70.756 82.809 71.074 82.257 71.71C81.717 72.346 81.447 73.27 81.447 74.482C81.447 75.694 81.717 76.618 82.257 77.254C82.809 77.89 83.541 78.208 84.453 78.208ZM90.9838 79V72.088C90.9838 71.74 90.9718 71.392 90.9478 71.044C90.9358 70.684 90.9058 70.33 90.8578 69.982H91.9378L92.0818 72.052L91.8658 72.07C91.9858 71.566 92.2018 71.152 92.5138 70.828C92.8258 70.492 93.1858 70.24 93.5938 70.072C94.0018 69.904 94.4218 69.82 94.8538 69.82C95.0098 69.82 95.1538 69.832 95.2858 69.856C95.4298 69.868 95.5618 69.892 95.6818 69.928L95.6458 70.918C95.5018 70.87 95.3578 70.84 95.2138 70.828C95.0698 70.816 94.9138 70.81 94.7458 70.81C94.2058 70.81 93.7318 70.942 93.3238 71.206C92.9278 71.47 92.6218 71.806 92.4058 72.214C92.1898 72.622 92.0818 73.036 92.0818 73.456V79H90.9838ZM100.736 79.144C99.8837 79.144 99.1457 78.958 98.5217 78.586C97.9097 78.214 97.4357 77.68 97.0997 76.984C96.7637 76.288 96.5957 75.454 96.5957 74.482C96.5957 73.522 96.7637 72.694 97.0997 71.998C97.4357 71.302 97.9097 70.768 98.5217 70.396C99.1457 70.012 99.8837 69.82 100.736 69.82C101.576 69.82 102.302 70.012 102.914 70.396C103.538 70.768 104.018 71.302 104.354 71.998C104.702 72.694 104.876 73.522 104.876 74.482C104.876 75.454 104.702 76.288 104.354 76.984C104.018 77.68 103.538 78.214 102.914 78.586C102.302 78.958 101.576 79.144 100.736 79.144ZM100.736 78.208C101.648 78.208 102.38 77.89 102.932 77.254C103.484 76.618 103.76 75.694 103.76 74.482C103.76 73.27 103.484 72.346 102.932 71.71C102.38 71.074 101.648 70.756 100.736 70.756C99.8117 70.756 99.0737 71.074 98.5217 71.71C97.9817 72.346 97.7117 73.27 97.7117 74.482C97.7117 75.694 97.9817 76.618 98.5217 77.254C99.0737 77.89 99.8117 78.208 100.736 78.208ZM109.838 79L106.004 69.982H107.228L110.648 78.316H110.18L113.636 69.982H114.806L110.972 79H109.838ZM116.631 79V69.982H117.729V79H116.631ZM116.451 67.768V66.4H117.927V67.768H116.451ZM124.128 79.144C123.324 79.144 122.622 78.958 122.022 78.586C121.422 78.214 120.96 77.68 120.636 76.984C120.312 76.288 120.15 75.454 120.15 74.482C120.15 73.51 120.312 72.682 120.636 71.998C120.96 71.302 121.422 70.768 122.022 70.396C122.622 70.012 123.324 69.82 124.128 69.82C124.956 69.82 125.67 70.036 126.27 70.468C126.882 70.888 127.29 71.47 127.494 72.214H127.278V65.752H128.376V79H127.296V76.732H127.494C127.29 77.488 126.882 78.082 126.27 78.514C125.67 78.934 124.956 79.144 124.128 79.144ZM124.272 78.208C125.184 78.208 125.916 77.89 126.468 77.254C127.032 76.618 127.314 75.694 127.314 74.482C127.314 73.27 127.032 72.346 126.468 71.71C125.916 71.074 125.184 70.756 124.272 70.756C123.36 70.756 122.628 71.074 122.076 71.71C121.536 72.346 121.266 73.27 121.266 74.482C121.266 75.694 121.536 76.618 122.076 77.254C122.628 77.89 123.36 78.208 124.272 78.208ZM135.231 79.144C133.863 79.144 132.777 78.736 131.973 77.92C131.181 77.104 130.785 75.97 130.785 74.518C130.785 73.558 130.959 72.73 131.307 72.034C131.667 71.338 132.165 70.798 132.801 70.414C133.437 70.018 134.175 69.82 135.015 69.82C135.819 69.82 136.497 69.994 137.049 70.342C137.601 70.678 138.027 71.164 138.327 71.8C138.627 72.424 138.777 73.168 138.777 74.032V74.536H131.577V73.744H138.093L137.787 73.978C137.787 72.958 137.553 72.16 137.085 71.584C136.617 70.996 135.921 70.702 134.997 70.702C134.013 70.702 133.245 71.044 132.693 71.728C132.141 72.4 131.865 73.294 131.865 74.41V74.536C131.865 75.736 132.159 76.648 132.747 77.272C133.347 77.896 134.181 78.208 135.249 78.208C135.801 78.208 136.317 78.124 136.797 77.956C137.277 77.788 137.739 77.5 138.183 77.092L138.633 77.902C138.249 78.298 137.751 78.604 137.139 78.82C136.527 79.036 135.891 79.144 135.231 79.144ZM144.051 79.144C143.355 79.144 142.701 79.042 142.089 78.838C141.489 78.634 140.991 78.352 140.595 77.992L141.027 77.182C141.471 77.542 141.951 77.812 142.467 77.992C142.983 78.16 143.523 78.244 144.087 78.244C144.855 78.244 145.437 78.1 145.833 77.812C146.229 77.524 146.427 77.134 146.427 76.642C146.427 76.258 146.301 75.946 146.049 75.706C145.797 75.466 145.377 75.286 144.789 75.166L143.169 74.824C142.401 74.644 141.825 74.356 141.441 73.96C141.069 73.564 140.883 73.066 140.883 72.466C140.883 71.95 141.015 71.494 141.279 71.098C141.555 70.702 141.945 70.39 142.449 70.162C142.953 69.934 143.547 69.82 144.231 69.82C144.879 69.82 145.473 69.928 146.013 70.144C146.565 70.348 147.015 70.642 147.363 71.026L146.895 71.818C146.535 71.458 146.127 71.188 145.671 71.008C145.227 70.828 144.753 70.738 144.249 70.738C143.505 70.738 142.941 70.894 142.557 71.206C142.173 71.506 141.981 71.908 141.981 72.412C141.981 72.796 142.101 73.114 142.341 73.366C142.581 73.606 142.959 73.786 143.475 73.906L145.095 74.266C145.911 74.446 146.517 74.722 146.913 75.094C147.309 75.466 147.507 75.958 147.507 76.57C147.507 77.098 147.363 77.56 147.075 77.956C146.787 78.34 146.385 78.634 145.869 78.838C145.353 79.042 144.747 79.144 144.051 79.144ZM154.617 82.888V71.998C154.617 71.674 154.605 71.344 154.581 71.008C154.557 70.672 154.521 70.33 154.473 69.982H155.553L155.733 72.232H155.517C155.721 71.488 156.117 70.9 156.705 70.468C157.293 70.036 158.007 69.82 158.847 69.82C159.663 69.82 160.365 70.012 160.953 70.396C161.553 70.768 162.021 71.302 162.357 71.998C162.693 72.682 162.861 73.51 162.861 74.482C162.861 75.454 162.693 76.288 162.357 76.984C162.033 77.68 161.571 78.214 160.971 78.586C160.371 78.958 159.663 79.144 158.847 79.144C158.019 79.144 157.305 78.934 156.705 78.514C156.117 78.082 155.721 77.494 155.517 76.75H155.715V82.888H154.617ZM158.703 78.208C159.627 78.208 160.365 77.89 160.917 77.254C161.469 76.618 161.745 75.694 161.745 74.482C161.745 73.27 161.469 72.346 160.917 71.71C160.365 71.074 159.627 70.756 158.703 70.756C157.791 70.756 157.059 71.074 156.507 71.71C155.967 72.346 155.697 73.27 155.697 74.482C155.697 75.694 155.967 76.618 156.507 77.254C157.059 77.89 157.791 78.208 158.703 78.208ZM165.234 79V72.088C165.234 71.74 165.222 71.392 165.198 71.044C165.186 70.684 165.156 70.33 165.108 69.982H166.188L166.332 72.052L166.116 72.07C166.236 71.566 166.452 71.152 166.764 70.828C167.076 70.492 167.436 70.24 167.844 70.072C168.252 69.904 168.672 69.82 169.104 69.82C169.26 69.82 169.404 69.832 169.536 69.856C169.68 69.868 169.812 69.892 169.932 69.928L169.896 70.918C169.752 70.87 169.608 70.84 169.464 70.828C169.32 70.816 169.164 70.81 168.996 70.81C168.456 70.81 167.982 70.942 167.574 71.206C167.178 71.47 166.872 71.806 166.656 72.214C166.44 72.622 166.332 73.036 166.332 73.456V79H165.234ZM174.986 79.144C174.134 79.144 173.396 78.958 172.772 78.586C172.16 78.214 171.686 77.68 171.35 76.984C171.014 76.288 170.846 75.454 170.846 74.482C170.846 73.522 171.014 72.694 171.35 71.998C171.686 71.302 172.16 70.768 172.772 70.396C173.396 70.012 174.134 69.82 174.986 69.82C175.826 69.82 176.552 70.012 177.164 70.396C177.788 70.768 178.268 71.302 178.604 71.998C178.952 72.694 179.126 73.522 179.126 74.482C179.126 75.454 178.952 76.288 178.604 76.984C178.268 77.68 177.788 78.214 177.164 78.586C176.552 78.958 175.826 79.144 174.986 79.144ZM174.986 78.208C175.898 78.208 176.63 77.89 177.182 77.254C177.734 76.618 178.01 75.694 178.01 74.482C178.01 73.27 177.734 72.346 177.182 71.71C176.63 71.074 175.898 70.756 174.986 70.756C174.062 70.756 173.324 71.074 172.772 71.71C172.232 72.346 171.962 73.27 171.962 74.482C171.962 75.694 172.232 76.618 172.772 77.254C173.324 77.89 174.062 78.208 174.986 78.208ZM185.417 83.014C184.661 83.014 183.953 82.912 183.293 82.708C182.645 82.504 182.063 82.198 181.547 81.79L181.943 80.944C182.327 81.22 182.693 81.436 183.041 81.592C183.401 81.76 183.773 81.88 184.157 81.952C184.541 82.036 184.955 82.078 185.399 82.078C186.311 82.078 187.001 81.832 187.469 81.34C187.937 80.86 188.171 80.164 188.171 79.252V76.39H188.369C188.177 77.146 187.775 77.74 187.163 78.172C186.551 78.592 185.831 78.802 185.003 78.802C184.175 78.802 183.455 78.622 182.843 78.262C182.243 77.89 181.775 77.368 181.439 76.696C181.115 76.012 180.953 75.214 180.953 74.302C180.953 73.39 181.115 72.598 181.439 71.926C181.775 71.254 182.243 70.738 182.843 70.378C183.455 70.006 184.175 69.82 185.003 69.82C185.831 69.82 186.551 70.036 187.163 70.468C187.775 70.888 188.177 71.482 188.369 72.25L188.171 72.052L188.333 69.982H189.413C189.365 70.33 189.329 70.672 189.305 71.008C189.281 71.344 189.269 71.674 189.269 71.998V79.09C189.269 80.386 188.939 81.364 188.279 82.024C187.631 82.684 186.677 83.014 185.417 83.014ZM185.129 77.866C186.065 77.866 186.803 77.554 187.343 76.93C187.895 76.306 188.171 75.43 188.171 74.302C188.171 73.186 187.895 72.316 187.343 71.692C186.803 71.068 186.065 70.756 185.129 70.756C184.193 70.756 183.449 71.068 182.897 71.692C182.345 72.316 182.069 73.186 182.069 74.302C182.069 75.43 182.345 76.306 182.897 76.93C183.449 77.554 184.193 77.866 185.129 77.866ZM192.216 79V72.088C192.216 71.74 192.204 71.392 192.18 71.044C192.168 70.684 192.138 70.33 192.09 69.982H193.17L193.314 72.052L193.098 72.07C193.218 71.566 193.434 71.152 193.746 70.828C194.058 70.492 194.418 70.24 194.826 70.072C195.234 69.904 195.654 69.82 196.086 69.82C196.242 69.82 196.386 69.832 196.518 69.856C196.662 69.868 196.794 69.892 196.914 69.928L196.878 70.918C196.734 70.87 196.59 70.84 196.446 70.828C196.302 70.816 196.146 70.81 195.978 70.81C195.438 70.81 194.964 70.942 194.556 71.206C194.16 71.47 193.854 71.806 193.638 72.214C193.422 72.622 193.314 73.036 193.314 73.456V79H192.216ZM202.274 79.144C200.906 79.144 199.82 78.736 199.016 77.92C198.224 77.104 197.828 75.97 197.828 74.518C197.828 73.558 198.002 72.73 198.35 72.034C198.71 71.338 199.208 70.798 199.844 70.414C200.48 70.018 201.218 69.82 202.058 69.82C202.862 69.82 203.54 69.994 204.092 70.342C204.644 70.678 205.07 71.164 205.37 71.8C205.67 72.424 205.82 73.168 205.82 74.032V74.536H198.62V73.744H205.136L204.83 73.978C204.83 72.958 204.596 72.16 204.128 71.584C203.66 70.996 202.964 70.702 202.04 70.702C201.056 70.702 200.288 71.044 199.736 71.728C199.184 72.4 198.908 73.294 198.908 74.41V74.536C198.908 75.736 199.202 76.648 199.79 77.272C200.39 77.896 201.224 78.208 202.292 78.208C202.844 78.208 203.36 78.124 203.84 77.956C204.32 77.788 204.782 77.5 205.226 77.092L205.676 77.902C205.292 78.298 204.794 78.604 204.182 78.82C203.57 79.036 202.934 79.144 202.274 79.144ZM211.094 79.144C210.398 79.144 209.744 79.042 209.132 78.838C208.532 78.634 208.034 78.352 207.638 77.992L208.07 77.182C208.514 77.542 208.994 77.812 209.51 77.992C210.026 78.16 210.566 78.244 211.13 78.244C211.898 78.244 212.48 78.1 212.876 77.812C213.272 77.524 213.47 77.134 213.47 76.642C213.47 76.258 213.344 75.946 213.092 75.706C212.84 75.466 212.42 75.286 211.832 75.166L210.212 74.824C209.444 74.644 208.868 74.356 208.484 73.96C208.112 73.564 207.926 73.066 207.926 72.466C207.926 71.95 208.058 71.494 208.322 71.098C208.598 70.702 208.988 70.39 209.492 70.162C209.996 69.934 210.59 69.82 211.274 69.82C211.922 69.82 212.516 69.928 213.056 70.144C213.608 70.348 214.058 70.642 214.406 71.026L213.938 71.818C213.578 71.458 213.17 71.188 212.714 71.008C212.27 70.828 211.796 70.738 211.292 70.738C210.548 70.738 209.984 70.894 209.6 71.206C209.216 71.506 209.024 71.908 209.024 72.412C209.024 72.796 209.144 73.114 209.384 73.366C209.624 73.606 210.002 73.786 210.518 73.906L212.138 74.266C212.954 74.446 213.56 74.722 213.956 75.094C214.352 75.466 214.55 75.958 214.55 76.57C214.55 77.098 214.406 77.56 214.118 77.956C213.83 78.34 213.428 78.634 212.912 78.838C212.396 79.042 211.79 79.144 211.094 79.144ZM219.988 79.144C219.292 79.144 218.638 79.042 218.026 78.838C217.426 78.634 216.928 78.352 216.532 77.992L216.964 77.182C217.408 77.542 217.888 77.812 218.404 77.992C218.92 78.16 219.46 78.244 220.024 78.244C220.792 78.244 221.374 78.1 221.77 77.812C222.166 77.524 222.364 77.134 222.364 76.642C222.364 76.258 222.238 75.946 221.986 75.706C221.734 75.466 221.314 75.286 220.726 75.166L219.106 74.824C218.338 74.644 217.762 74.356 217.378 73.96C217.006 73.564 216.82 73.066 216.82 72.466C216.82 71.95 216.952 71.494 217.216 71.098C217.492 70.702 217.882 70.39 218.386 70.162C218.89 69.934 219.484 69.82 220.168 69.82C220.816 69.82 221.41 69.928 221.95 70.144C222.502 70.348 222.952 70.642 223.3 71.026L222.832 71.818C222.472 71.458 222.064 71.188 221.608 71.008C221.164 70.828 220.69 70.738 220.186 70.738C219.442 70.738 218.878 70.894 218.494 71.206C218.11 71.506 217.918 71.908 217.918 72.412C217.918 72.796 218.038 73.114 218.278 73.366C218.518 73.606 218.896 73.786 219.412 73.906L221.032 74.266C221.848 74.446 222.454 74.722 222.85 75.094C223.246 75.466 223.444 75.958 223.444 76.57C223.444 77.098 223.3 77.56 223.012 77.956C222.724 78.34 222.322 78.634 221.806 78.838C221.29 79.042 220.684 79.144 219.988 79.144ZM225.967 79V69.982H227.065V79H225.967ZM225.787 67.768V66.4H227.263V67.768H225.787ZM232.726 79L228.892 69.982H230.116L233.536 78.316H233.068L236.524 69.982H237.694L233.86 79H232.726ZM243.284 79.144C241.916 79.144 240.83 78.736 240.026 77.92C239.234 77.104 238.838 75.97 238.838 74.518C238.838 73.558 239.012 72.73 239.36 72.034C239.72 71.338 240.218 70.798 240.854 70.414C241.49 70.018 242.228 69.82 243.068 69.82C243.872 69.82 244.55 69.994 245.102 70.342C245.654 70.678 246.08 71.164 246.38 71.8C246.68 72.424 246.83 73.168 246.83 74.032V74.536H239.63V73.744H246.146L245.84 73.978C245.84 72.958 245.606 72.16 245.138 71.584C244.67 70.996 243.974 70.702 243.05 70.702C242.066 70.702 241.298 71.044 240.746 71.728C240.194 72.4 239.918 73.294 239.918 74.41V74.536C239.918 75.736 240.212 76.648 240.8 77.272C241.4 77.896 242.234 78.208 243.302 78.208C243.854 78.208 244.37 78.124 244.85 77.956C245.33 77.788 245.792 77.5 246.236 77.092L246.686 77.902C246.302 78.298 245.804 78.604 245.192 78.82C244.58 79.036 243.944 79.144 243.284 79.144ZM249.493 80.908L248.935 80.458C249.223 80.146 249.409 79.858 249.493 79.594C249.577 79.33 249.619 79.066 249.619 78.802L249.871 79H248.899V77.452H250.429V78.604C250.429 79.024 250.363 79.426 250.231 79.81C250.099 80.194 249.853 80.56 249.493 80.908ZM261.133 79.144C260.317 79.144 259.609 78.958 259.009 78.586C258.409 78.214 257.947 77.68 257.623 76.984C257.299 76.288 257.137 75.454 257.137 74.482C257.137 73.51 257.299 72.682 257.623 71.998C257.959 71.302 258.427 70.768 259.027 70.396C259.627 70.012 260.329 69.82 261.133 69.82C261.961 69.82 262.675 70.036 263.275 70.468C263.887 70.9 264.289 71.488 264.481 72.232H264.265L264.445 69.982H265.507C265.471 70.33 265.435 70.672 265.399 71.008C265.375 71.344 265.363 71.674 265.363 71.998V79H264.265V76.75H264.463C264.271 77.494 263.869 78.082 263.257 78.514C262.657 78.934 261.949 79.144 261.133 79.144ZM261.277 78.208C262.201 78.208 262.933 77.89 263.473 77.254C264.013 76.618 264.283 75.694 264.283 74.482C264.283 73.27 264.013 72.346 263.473 71.71C262.933 71.074 262.201 70.756 261.277 70.756C260.353 70.756 259.615 71.074 259.063 71.71C258.523 72.346 258.253 73.27 258.253 74.482C258.253 75.694 258.523 76.618 259.063 77.254C259.615 77.89 260.353 78.208 261.277 78.208ZM268.348 79V71.998C268.348 71.674 268.336 71.344 268.312 71.008C268.288 70.672 268.252 70.33 268.204 69.982H269.284L269.446 72.052H269.23C269.494 71.332 269.92 70.78 270.508 70.396C271.096 70.012 271.78 69.82 272.56 69.82C273.628 69.82 274.432 70.102 274.972 70.666C275.524 71.23 275.8 72.112 275.8 73.312V79H274.702V73.402C274.702 72.478 274.516 71.812 274.144 71.404C273.772 70.984 273.196 70.774 272.416 70.774C271.504 70.774 270.778 71.05 270.238 71.602C269.71 72.154 269.446 72.898 269.446 73.834V79H268.348ZM282.156 79.144C281.352 79.144 280.65 78.958 280.05 78.586C279.45 78.214 278.988 77.68 278.664 76.984C278.34 76.288 278.178 75.454 278.178 74.482C278.178 73.51 278.34 72.682 278.664 71.998C278.988 71.302 279.45 70.768 280.05 70.396C280.65 70.012 281.352 69.82 282.156 69.82C282.984 69.82 283.698 70.036 284.298 70.468C284.91 70.888 285.318 71.47 285.522 72.214H285.306V65.752H286.404V79H285.324V76.732H285.522C285.318 77.488 284.91 78.082 284.298 78.514C283.698 78.934 282.984 79.144 282.156 79.144ZM282.3 78.208C283.212 78.208 283.944 77.89 284.496 77.254C285.06 76.618 285.342 75.694 285.342 74.482C285.342 73.27 285.06 72.346 284.496 71.71C283.944 71.074 283.212 70.756 282.3 70.756C281.388 70.756 280.656 71.074 280.104 71.71C279.564 72.346 279.294 73.27 279.294 74.482C279.294 75.694 279.564 76.618 280.104 77.254C280.656 77.89 281.388 78.208 282.3 78.208ZM297.396 79.144C296.58 79.144 295.872 78.958 295.272 78.586C294.672 78.214 294.21 77.68 293.886 76.984C293.562 76.288 293.4 75.454 293.4 74.482C293.4 73.51 293.562 72.682 293.886 71.998C294.222 71.302 294.69 70.768 295.29 70.396C295.89 70.012 296.592 69.82 297.396 69.82C298.224 69.82 298.938 70.036 299.538 70.468C300.15 70.9 300.552 71.488 300.744 72.232H300.528L300.708 69.982H301.77C301.734 70.33 301.698 70.672 301.662 71.008C301.638 71.344 301.626 71.674 301.626 71.998V79H300.528V76.75H300.726C300.534 77.494 300.132 78.082 299.52 78.514C298.92 78.934 298.212 79.144 297.396 79.144ZM297.54 78.208C298.464 78.208 299.196 77.89 299.736 77.254C300.276 76.618 300.546 75.694 300.546 74.482C300.546 73.27 300.276 72.346 299.736 71.71C299.196 71.074 298.464 70.756 297.54 70.756C296.616 70.756 295.878 71.074 295.326 71.71C294.786 72.346 294.516 73.27 294.516 74.482C294.516 75.694 294.786 76.618 295.326 77.254C295.878 77.89 296.616 78.208 297.54 78.208ZM305.043 79V70.864H303.243V69.982H305.313L305.043 70.27V68.704C305.043 67.744 305.283 67 305.763 66.472C306.243 65.944 306.927 65.68 307.815 65.68C308.043 65.68 308.277 65.704 308.517 65.752C308.757 65.788 308.955 65.836 309.111 65.896V66.868C308.967 66.808 308.793 66.754 308.589 66.706C308.385 66.658 308.169 66.634 307.941 66.634C307.545 66.634 307.209 66.718 306.933 66.886C306.669 67.054 306.465 67.3 306.321 67.624C306.189 67.936 306.123 68.338 306.123 68.83V70.27L305.943 69.982H308.715V70.864H306.141V79H305.043ZM310.651 79V70.864H308.851V69.982H310.921L310.651 70.27V68.704C310.651 67.744 310.891 67 311.371 66.472C311.851 65.944 312.535 65.68 313.423 65.68C313.651 65.68 313.885 65.704 314.125 65.752C314.365 65.788 314.563 65.836 314.719 65.896V66.868C314.575 66.808 314.401 66.754 314.197 66.706C313.993 66.658 313.777 66.634 313.549 66.634C313.153 66.634 312.817 66.718 312.541 66.886C312.277 67.054 312.073 67.3 311.929 67.624C311.797 67.936 311.731 68.338 311.731 68.83V70.27L311.551 69.982H314.323V70.864H311.749V79H310.651ZM319.355 79.144C318.503 79.144 317.765 78.958 317.141 78.586C316.529 78.214 316.055 77.68 315.719 76.984C315.383 76.288 315.215 75.454 315.215 74.482C315.215 73.522 315.383 72.694 315.719 71.998C316.055 71.302 316.529 70.768 317.141 70.396C317.765 70.012 318.503 69.82 319.355 69.82C320.195 69.82 320.921 70.012 321.533 70.396C322.157 70.768 322.637 71.302 322.973 71.998C323.321 72.694 323.495 73.522 323.495 74.482C323.495 75.454 323.321 76.288 322.973 76.984C322.637 77.68 322.157 78.214 321.533 78.586C320.921 78.958 320.195 79.144 319.355 79.144ZM319.355 78.208C320.267 78.208 320.999 77.89 321.551 77.254C322.103 76.618 322.379 75.694 322.379 74.482C322.379 73.27 322.103 72.346 321.551 71.71C320.999 71.074 320.267 70.756 319.355 70.756C318.431 70.756 317.693 71.074 317.141 71.71C316.601 72.346 316.331 73.27 316.331 74.482C316.331 75.694 316.601 76.618 317.141 77.254C317.693 77.89 318.431 78.208 319.355 78.208ZM325.88 79V72.088C325.88 71.74 325.868 71.392 325.844 71.044C325.832 70.684 325.802 70.33 325.754 69.982H326.834L326.978 72.052L326.762 72.07C326.882 71.566 327.098 71.152 327.41 70.828C327.722 70.492 328.082 70.24 328.49 70.072C328.898 69.904 329.318 69.82 329.75 69.82C329.906 69.82 330.05 69.832 330.182 69.856C330.326 69.868 330.458 69.892 330.578 69.928L330.542 70.918C330.398 70.87 330.254 70.84 330.11 70.828C329.966 70.816 329.81 70.81 329.642 70.81C329.102 70.81 328.628 70.942 328.22 71.206C327.824 71.47 327.518 71.806 327.302 72.214C327.086 72.622 326.978 73.036 326.978 73.456V79H325.88ZM335.47 79.144C334.666 79.144 333.964 78.958 333.364 78.586C332.764 78.214 332.302 77.68 331.978 76.984C331.654 76.288 331.492 75.454 331.492 74.482C331.492 73.51 331.654 72.682 331.978 71.998C332.302 71.302 332.764 70.768 333.364 70.396C333.964 70.012 334.666 69.82 335.47 69.82C336.298 69.82 337.012 70.036 337.612 70.468C338.224 70.888 338.632 71.47 338.836 72.214H338.62V65.752H339.718V79H338.638V76.732H338.836C338.632 77.488 338.224 78.082 337.612 78.514C337.012 78.934 336.298 79.144 335.47 79.144ZM335.614 78.208C336.526 78.208 337.258 77.89 337.81 77.254C338.374 76.618 338.656 75.694 338.656 74.482C338.656 73.27 338.374 72.346 337.81 71.71C337.258 71.074 336.526 70.756 335.614 70.756C334.702 70.756 333.97 71.074 333.418 71.71C332.878 72.346 332.608 73.27 332.608 74.482C332.608 75.694 332.878 76.618 333.418 77.254C333.97 77.89 334.702 78.208 335.614 78.208ZM346.123 79.144C345.307 79.144 344.599 78.958 343.999 78.586C343.399 78.214 342.937 77.68 342.613 76.984C342.289 76.288 342.127 75.454 342.127 74.482C342.127 73.51 342.289 72.682 342.613 71.998C342.949 71.302 343.417 70.768 344.017 70.396C344.617 70.012 345.319 69.82 346.123 69.82C346.951 69.82 347.665 70.036 348.265 70.468C348.877 70.9 349.279 71.488 349.471 72.232H349.255L349.435 69.982H350.497C350.461 70.33 350.425 70.672 350.389 71.008C350.365 71.344 350.353 71.674 350.353 71.998V79H349.255V76.75H349.453C349.261 77.494 348.859 78.082 348.247 78.514C347.647 78.934 346.939 79.144 346.123 79.144ZM346.267 78.208C347.191 78.208 347.923 77.89 348.463 77.254C349.003 76.618 349.273 75.694 349.273 74.482C349.273 73.27 349.003 72.346 348.463 71.71C347.923 71.074 347.191 70.756 346.267 70.756C345.343 70.756 344.605 71.074 344.053 71.71C343.513 72.346 343.243 73.27 343.243 74.482C343.243 75.694 343.513 76.618 344.053 77.254C344.605 77.89 345.343 78.208 346.267 78.208ZM357.586 79.144C356.746 79.144 356.026 78.934 355.426 78.514C354.838 78.082 354.442 77.488 354.238 76.732H354.436V79H353.338V65.752H354.436V72.214H354.238C354.442 71.47 354.838 70.888 355.426 70.468C356.026 70.036 356.746 69.82 357.586 69.82C358.402 69.82 359.104 70.012 359.692 70.396C360.292 70.768 360.754 71.302 361.078 71.998C361.414 72.682 361.582 73.516 361.582 74.5C361.582 75.46 361.414 76.288 361.078 76.984C360.742 77.68 360.274 78.214 359.674 78.586C359.086 78.958 358.39 79.144 357.586 79.144ZM357.424 78.208C358.348 78.208 359.086 77.896 359.638 77.272C360.19 76.636 360.466 75.712 360.466 74.5C360.466 73.288 360.19 72.364 359.638 71.728C359.086 71.08 358.348 70.756 357.424 70.756C356.512 70.756 355.78 71.074 355.228 71.71C354.688 72.346 354.418 73.27 354.418 74.482C354.418 75.694 354.688 76.618 355.228 77.254C355.78 77.89 356.512 78.208 357.424 78.208ZM363.973 79V65.752H365.071V79H363.973ZM371.938 79.144C370.57 79.144 369.484 78.736 368.68 77.92C367.888 77.104 367.492 75.97 367.492 74.518C367.492 73.558 367.666 72.73 368.014 72.034C368.374 71.338 368.872 70.798 369.508 70.414C370.144 70.018 370.882 69.82 371.722 69.82C372.526 69.82 373.204 69.994 373.756 70.342C374.308 70.678 374.734 71.164 375.034 71.8C375.334 72.424 375.484 73.168 375.484 74.032V74.536H368.284V73.744H374.8L374.494 73.978C374.494 72.958 374.26 72.16 373.792 71.584C373.324 70.996 372.628 70.702 371.704 70.702C370.72 70.702 369.952 71.044 369.4 71.728C368.848 72.4 368.572 73.294 368.572 74.41V74.536C368.572 75.736 368.866 76.648 369.454 77.272C370.054 77.896 370.888 78.208 371.956 78.208C372.508 78.208 373.024 78.124 373.504 77.956C373.984 77.788 374.446 77.5 374.89 77.092L375.34 77.902C374.956 78.298 374.458 78.604 373.846 78.82C373.234 79.036 372.598 79.144 371.938 79.144ZM1.494 107V93.752H2.592V100.07H2.376C2.628 99.338 3.054 98.78 3.654 98.396C4.254 98.012 4.95 97.82 5.742 97.82C6.834 97.82 7.638 98.108 8.154 98.684C8.682 99.26 8.946 100.124 8.946 101.276V107H7.848V101.366C7.848 100.454 7.668 99.794 7.308 99.386C6.948 98.978 6.372 98.774 5.58 98.774C4.68 98.774 3.954 99.05 3.402 99.602C2.862 100.154 2.592 100.886 2.592 101.798V107H1.494ZM15.7703 107.144C14.4023 107.144 13.3163 106.736 12.5123 105.92C11.7203 105.104 11.3243 103.97 11.3243 102.518C11.3243 101.558 11.4983 100.73 11.8463 100.034C12.2063 99.338 12.7043 98.798 13.3403 98.414C13.9763 98.018 14.7143 97.82 15.5543 97.82C16.3583 97.82 17.0363 97.994 17.5883 98.342C18.1403 98.678 18.5663 99.164 18.8663 99.8C19.1663 100.424 19.3163 101.168 19.3163 102.032V102.536H12.1163V101.744H18.6323L18.3263 101.978C18.3263 100.958 18.0923 100.16 17.6243 99.584C17.1563 98.996 16.4603 98.702 15.5363 98.702C14.5523 98.702 13.7843 99.044 13.2323 99.728C12.6803 100.4 12.4043 101.294 12.4043 102.41V102.536C12.4043 103.736 12.6983 104.648 13.2863 105.272C13.8863 105.896 14.7203 106.208 15.7883 106.208C16.3403 106.208 16.8563 106.124 17.3363 105.956C17.8163 105.788 18.2783 105.5 18.7223 105.092L19.1723 105.902C18.7883 106.298 18.2903 106.604 17.6783 106.82C17.0663 107.036 16.4303 107.144 15.7703 107.144ZM25.0937 107.144C24.2777 107.144 23.5697 106.958 22.9697 106.586C22.3697 106.214 21.9077 105.68 21.5837 104.984C21.2597 104.288 21.0977 103.454 21.0977 102.482C21.0977 101.51 21.2597 100.682 21.5837 99.998C21.9197 99.302 22.3877 98.768 22.9877 98.396C23.5877 98.012 24.2897 97.82 25.0937 97.82C25.9217 97.82 26.6357 98.036 27.2357 98.468C27.8477 98.9 28.2497 99.488 28.4417 100.232H28.2257L28.4057 97.982H29.4677C29.4317 98.33 29.3957 98.672 29.3597 99.008C29.3357 99.344 29.3237 99.674 29.3237 99.998V107H28.2257V104.75H28.4237C28.2317 105.494 27.8297 106.082 27.2177 106.514C26.6177 106.934 25.9097 107.144 25.0937 107.144ZM25.2377 106.208C26.1617 106.208 26.8937 105.89 27.4337 105.254C27.9737 104.618 28.2437 103.694 28.2437 102.482C28.2437 101.27 27.9737 100.346 27.4337 99.71C26.8937 99.074 26.1617 98.756 25.2377 98.756C24.3137 98.756 23.5757 99.074 23.0237 99.71C22.4837 100.346 22.2137 101.27 22.2137 102.482C22.2137 103.694 22.4837 104.618 23.0237 105.254C23.5757 105.89 24.3137 106.208 25.2377 106.208ZM32.3085 107V93.752H33.4065V107H32.3085ZM39.3202 107.144C38.5162 107.144 37.8982 106.904 37.4662 106.424C37.0462 105.944 36.8362 105.206 36.8362 104.21V98.864H35.0362V97.982H36.8362V95.462L37.9342 95.102V97.982H40.5982V98.864H37.9342V104.048C37.9342 104.804 38.0542 105.35 38.2942 105.686C38.5342 106.022 38.9182 106.19 39.4462 106.19C39.6862 106.19 39.8962 106.166 40.0762 106.118C40.2682 106.07 40.4302 106.016 40.5622 105.956V106.928C40.4182 106.988 40.2322 107.036 40.0042 107.072C39.7762 107.12 39.5482 107.144 39.3202 107.144ZM42.4686 107V93.752H43.5666V100.07H43.3506C43.6026 99.338 44.0286 98.78 44.6286 98.396C45.2286 98.012 45.9246 97.82 46.7166 97.82C47.8086 97.82 48.6126 98.108 49.1286 98.684C49.6566 99.26 49.9206 100.124 49.9206 101.276V107H48.8226V101.366C48.8226 100.454 48.6426 99.794 48.2826 99.386C47.9226 98.978 47.3466 98.774 46.5546 98.774C45.6546 98.774 44.9286 99.05 44.3766 99.602C43.8366 100.154 43.5666 100.886 43.5666 101.798V107H42.4686ZM56.5109 107.144C55.6589 107.144 54.9149 106.958 54.2789 106.586C53.6429 106.202 53.1509 105.656 52.8029 104.948C52.4669 104.24 52.2989 103.4 52.2989 102.428C52.2989 101.456 52.4729 100.628 52.8209 99.944C53.1689 99.248 53.6549 98.72 54.2789 98.36C54.9149 98 55.6589 97.82 56.5109 97.82C57.0869 97.82 57.6389 97.928 58.1669 98.144C58.7069 98.36 59.1509 98.66 59.4989 99.044L59.0489 99.854C58.6769 99.482 58.2749 99.212 57.8429 99.044C57.4109 98.864 56.9789 98.774 56.5469 98.774C55.5629 98.774 54.7949 99.086 54.2429 99.71C53.6909 100.334 53.4149 101.246 53.4149 102.446C53.4149 103.646 53.6909 104.576 54.2429 105.236C54.7949 105.884 55.5629 106.208 56.5469 106.208C56.9549 106.208 57.3749 106.124 57.8069 105.956C58.2509 105.788 58.6649 105.512 59.0489 105.128L59.4989 105.938C59.1389 106.322 58.6829 106.622 58.1309 106.838C57.5909 107.042 57.0509 107.144 56.5109 107.144ZM65.0488 107.144C64.2328 107.144 63.5248 106.958 62.9248 106.586C62.3248 106.214 61.8628 105.68 61.5388 104.984C61.2148 104.288 61.0528 103.454 61.0528 102.482C61.0528 101.51 61.2148 100.682 61.5388 99.998C61.8748 99.302 62.3428 98.768 62.9428 98.396C63.5428 98.012 64.2448 97.82 65.0488 97.82C65.8768 97.82 66.5908 98.036 67.1908 98.468C67.8028 98.9 68.2048 99.488 68.3968 100.232H68.1808L68.3608 97.982H69.4228C69.3868 98.33 69.3508 98.672 69.3148 99.008C69.2908 99.344 69.2788 99.674 69.2788 99.998V107H68.1808V104.75H68.3788C68.1868 105.494 67.7848 106.082 67.1728 106.514C66.5728 106.934 65.8648 107.144 65.0488 107.144ZM65.1928 106.208C66.1168 106.208 66.8488 105.89 67.3888 105.254C67.9288 104.618 68.1988 103.694 68.1988 102.482C68.1988 101.27 67.9288 100.346 67.3888 99.71C66.8488 99.074 66.1168 98.756 65.1928 98.756C64.2688 98.756 63.5308 99.074 62.9788 99.71C62.4388 100.346 62.1688 101.27 62.1688 102.482C62.1688 103.694 62.4388 104.618 62.9788 105.254C63.5308 105.89 64.2688 106.208 65.1928 106.208ZM72.2455 107V100.088C72.2455 99.74 72.2335 99.392 72.2095 99.044C72.1975 98.684 72.1675 98.33 72.1195 97.982H73.1995L73.3435 100.052L73.1275 100.07C73.2475 99.566 73.4635 99.152 73.7755 98.828C74.0875 98.492 74.4475 98.24 74.8555 98.072C75.2635 97.904 75.6835 97.82 76.1155 97.82C76.2715 97.82 76.4155 97.832 76.5475 97.856C76.6915 97.868 76.8235 97.892 76.9435 97.928L76.9075 98.918C76.7635 98.87 76.6195 98.84 76.4755 98.828C76.3315 98.816 76.1755 98.81 76.0075 98.81C75.4675 98.81 74.9935 98.942 74.5855 99.206C74.1895 99.47 73.8835 99.806 73.6675 100.214C73.4515 100.622 73.3435 101.036 73.3435 101.456V107H72.2455ZM82.3035 107.144C80.9355 107.144 79.8495 106.736 79.0455 105.92C78.2535 105.104 77.8575 103.97 77.8575 102.518C77.8575 101.558 78.0315 100.73 78.3795 100.034C78.7395 99.338 79.2375 98.798 79.8735 98.414C80.5095 98.018 81.2475 97.82 82.0875 97.82C82.8915 97.82 83.5695 97.994 84.1215 98.342C84.6735 98.678 85.0995 99.164 85.3995 99.8C85.6995 100.424 85.8495 101.168 85.8495 102.032V102.536H78.6495V101.744H85.1655L84.8595 101.978C84.8595 100.958 84.6255 100.16 84.1575 99.584C83.6895 98.996 82.9935 98.702 82.0695 98.702C81.0855 98.702 80.3175 99.044 79.7655 99.728C79.2135 100.4 78.9375 101.294 78.9375 102.41V102.536C78.9375 103.736 79.2315 104.648 79.8195 105.272C80.4195 105.896 81.2535 106.208 82.3215 106.208C82.8735 106.208 83.3895 106.124 83.8695 105.956C84.3495 105.788 84.8115 105.5 85.2555 105.092L85.7055 105.902C85.3215 106.298 84.8235 106.604 84.2115 106.82C83.5995 107.036 82.9635 107.144 82.3035 107.144ZM88.5129 108.908L87.9549 108.458C88.2429 108.146 88.4289 107.858 88.5129 107.594C88.5969 107.33 88.6389 107.066 88.6389 106.802L88.8909 107H87.9189V105.452H89.4489V106.604C89.4489 107.024 89.3829 107.426 89.2509 107.81C89.1189 108.194 88.8729 108.56 88.5129 108.908ZM100.152 107.144C99.3363 107.144 98.6283 106.958 98.0283 106.586C97.4283 106.214 96.9663 105.68 96.6423 104.984C96.3183 104.288 96.1563 103.454 96.1563 102.482C96.1563 101.51 96.3183 100.682 96.6423 99.998C96.9783 99.302 97.4463 98.768 98.0463 98.396C98.6463 98.012 99.3483 97.82 100.152 97.82C100.98 97.82 101.694 98.036 102.294 98.468C102.906 98.9 103.308 99.488 103.5 100.232H103.284L103.464 97.982H104.526C104.49 98.33 104.454 98.672 104.418 99.008C104.394 99.344 104.382 99.674 104.382 99.998V107H103.284V104.75H103.482C103.29 105.494 102.888 106.082 102.276 106.514C101.676 106.934 100.968 107.144 100.152 107.144ZM100.296 106.208C101.22 106.208 101.952 105.89 102.492 105.254C103.032 104.618 103.302 103.694 103.302 102.482C103.302 101.27 103.032 100.346 102.492 99.71C101.952 99.074 101.22 98.756 100.296 98.756C99.3723 98.756 98.6343 99.074 98.0823 99.71C97.5423 100.346 97.2723 101.27 97.2723 102.482C97.2723 103.694 97.5423 104.618 98.0823 105.254C98.6343 105.89 99.3723 106.208 100.296 106.208ZM111.003 107.144C110.151 107.144 109.407 106.958 108.771 106.586C108.135 106.202 107.643 105.656 107.295 104.948C106.959 104.24 106.791 103.4 106.791 102.428C106.791 101.456 106.965 100.628 107.313 99.944C107.661 99.248 108.147 98.72 108.771 98.36C109.407 98 110.151 97.82 111.003 97.82C111.579 97.82 112.131 97.928 112.659 98.144C113.199 98.36 113.643 98.66 113.991 99.044L113.541 99.854C113.169 99.482 112.767 99.212 112.335 99.044C111.903 98.864 111.471 98.774 111.039 98.774C110.055 98.774 109.287 99.086 108.735 99.71C108.183 100.334 107.907 101.246 107.907 102.446C107.907 103.646 108.183 104.576 108.735 105.236C109.287 105.884 110.055 106.208 111.039 106.208C111.447 106.208 111.867 106.124 112.299 105.956C112.743 105.788 113.157 105.512 113.541 105.128L113.991 105.938C113.631 106.322 113.175 106.622 112.623 106.838C112.083 107.042 111.543 107.144 111.003 107.144ZM119.669 107.144C118.817 107.144 118.073 106.958 117.437 106.586C116.801 106.202 116.309 105.656 115.961 104.948C115.625 104.24 115.457 103.4 115.457 102.428C115.457 101.456 115.631 100.628 115.979 99.944C116.327 99.248 116.813 98.72 117.437 98.36C118.073 98 118.817 97.82 119.669 97.82C120.245 97.82 120.797 97.928 121.325 98.144C121.865 98.36 122.309 98.66 122.657 99.044L122.207 99.854C121.835 99.482 121.433 99.212 121.001 99.044C120.569 98.864 120.137 98.774 119.705 98.774C118.721 98.774 117.953 99.086 117.401 99.71C116.849 100.334 116.573 101.246 116.573 102.446C116.573 103.646 116.849 104.576 117.401 105.236C117.953 105.884 118.721 106.208 119.705 106.208C120.113 106.208 120.533 106.124 120.965 105.956C121.409 105.788 121.823 105.512 122.207 105.128L122.657 105.938C122.297 106.322 121.841 106.622 121.289 106.838C120.749 107.042 120.209 107.144 119.669 107.144ZM128.569 107.144C127.201 107.144 126.115 106.736 125.311 105.92C124.519 105.104 124.123 103.97 124.123 102.518C124.123 101.558 124.297 100.73 124.645 100.034C125.005 99.338 125.503 98.798 126.139 98.414C126.775 98.018 127.513 97.82 128.353 97.82C129.157 97.82 129.835 97.994 130.387 98.342C130.939 98.678 131.365 99.164 131.665 99.8C131.965 100.424 132.115 101.168 132.115 102.032V102.536H124.915V101.744H131.431L131.125 101.978C131.125 100.958 130.891 100.16 130.423 99.584C129.955 98.996 129.259 98.702 128.335 98.702C127.351 98.702 126.583 99.044 126.031 99.728C125.479 100.4 125.203 101.294 125.203 102.41V102.536C125.203 103.736 125.497 104.648 126.085 105.272C126.685 105.896 127.519 106.208 128.587 106.208C129.139 106.208 129.655 106.124 130.135 105.956C130.615 105.788 131.077 105.5 131.521 105.092L131.971 105.902C131.587 106.298 131.089 106.604 130.477 106.82C129.865 107.036 129.229 107.144 128.569 107.144ZM137.389 107.144C136.693 107.144 136.039 107.042 135.427 106.838C134.827 106.634 134.329 106.352 133.933 105.992L134.365 105.182C134.809 105.542 135.289 105.812 135.805 105.992C136.321 106.16 136.861 106.244 137.425 106.244C138.193 106.244 138.775 106.1 139.171 105.812C139.567 105.524 139.765 105.134 139.765 104.642C139.765 104.258 139.639 103.946 139.387 103.706C139.135 103.466 138.715 103.286 138.127 103.166L136.507 102.824C135.739 102.644 135.163 102.356 134.779 101.96C134.407 101.564 134.221 101.066 134.221 100.466C134.221 99.95 134.353 99.494 134.617 99.098C134.893 98.702 135.283 98.39 135.787 98.162C136.291 97.934 136.885 97.82 137.569 97.82C138.217 97.82 138.811 97.928 139.351 98.144C139.903 98.348 140.353 98.642 140.701 99.026L140.233 99.818C139.873 99.458 139.465 99.188 139.009 99.008C138.565 98.828 138.091 98.738 137.587 98.738C136.843 98.738 136.279 98.894 135.895 99.206C135.511 99.506 135.319 99.908 135.319 100.412C135.319 100.796 135.439 101.114 135.679 101.366C135.919 101.606 136.297 101.786 136.813 101.906L138.433 102.266C139.249 102.446 139.855 102.722 140.251 103.094C140.647 103.466 140.845 103.958 140.845 104.57C140.845 105.098 140.701 105.56 140.413 105.956C140.125 106.34 139.723 106.634 139.207 106.838C138.691 107.042 138.085 107.144 137.389 107.144ZM146.283 107.144C145.587 107.144 144.933 107.042 144.321 106.838C143.721 106.634 143.223 106.352 142.827 105.992L143.259 105.182C143.703 105.542 144.183 105.812 144.699 105.992C145.215 106.16 145.755 106.244 146.319 106.244C147.087 106.244 147.669 106.1 148.065 105.812C148.461 105.524 148.659 105.134 148.659 104.642C148.659 104.258 148.533 103.946 148.281 103.706C148.029 103.466 147.609 103.286 147.021 103.166L145.401 102.824C144.633 102.644 144.057 102.356 143.673 101.96C143.301 101.564 143.115 101.066 143.115 100.466C143.115 99.95 143.247 99.494 143.511 99.098C143.787 98.702 144.177 98.39 144.681 98.162C145.185 97.934 145.779 97.82 146.463 97.82C147.111 97.82 147.705 97.928 148.245 98.144C148.797 98.348 149.247 98.642 149.595 99.026L149.127 99.818C148.767 99.458 148.359 99.188 147.903 99.008C147.459 98.828 146.985 98.738 146.481 98.738C145.737 98.738 145.173 98.894 144.789 99.206C144.405 99.506 144.213 99.908 144.213 100.412C144.213 100.796 144.333 101.114 144.573 101.366C144.813 101.606 145.191 101.786 145.707 101.906L147.327 102.266C148.143 102.446 148.749 102.722 149.145 103.094C149.541 103.466 149.739 103.958 149.739 104.57C149.739 105.098 149.595 105.56 149.307 105.956C149.019 106.34 148.617 106.634 148.101 106.838C147.585 107.042 146.979 107.144 146.283 107.144ZM152.262 107V97.982H153.36V107H152.262ZM152.082 95.768V94.4H153.558V95.768H152.082ZM160.605 107.144C159.765 107.144 159.045 106.934 158.445 106.514C157.857 106.082 157.461 105.488 157.257 104.732H157.455V107H156.357V93.752H157.455V100.214H157.257C157.461 99.47 157.857 98.888 158.445 98.468C159.045 98.036 159.765 97.82 160.605 97.82C161.421 97.82 162.123 98.012 162.711 98.396C163.311 98.768 163.773 99.302 164.097 99.998C164.433 100.682 164.601 101.516 164.601 102.5C164.601 103.46 164.433 104.288 164.097 104.984C163.761 105.68 163.293 106.214 162.693 106.586C162.105 106.958 161.409 107.144 160.605 107.144ZM160.443 106.208C161.367 106.208 162.105 105.896 162.657 105.272C163.209 104.636 163.485 103.712 163.485 102.5C163.485 101.288 163.209 100.364 162.657 99.728C162.105 99.08 161.367 98.756 160.443 98.756C159.531 98.756 158.799 99.074 158.247 99.71C157.707 100.346 157.437 101.27 157.437 102.482C157.437 103.694 157.707 104.618 158.247 105.254C158.799 105.89 159.531 106.208 160.443 106.208ZM166.992 107V93.752H168.09V107H166.992ZM174.958 107.144C173.59 107.144 172.504 106.736 171.7 105.92C170.908 105.104 170.512 103.97 170.512 102.518C170.512 101.558 170.686 100.73 171.034 100.034C171.394 99.338 171.892 98.798 172.528 98.414C173.164 98.018 173.902 97.82 174.742 97.82C175.546 97.82 176.224 97.994 176.776 98.342C177.328 98.678 177.754 99.164 178.054 99.8C178.354 100.424 178.504 101.168 178.504 102.032V102.536H171.304V101.744H177.82L177.514 101.978C177.514 100.958 177.28 100.16 176.812 99.584C176.344 98.996 175.648 98.702 174.724 98.702C173.74 98.702 172.972 99.044 172.42 99.728C171.868 100.4 171.592 101.294 171.592 102.41V102.536C171.592 103.736 171.886 104.648 172.474 105.272C173.074 105.896 173.908 106.208 174.976 106.208C175.528 106.208 176.044 106.124 176.524 105.956C177.004 105.788 177.466 105.5 177.91 105.092L178.36 105.902C177.976 106.298 177.478 106.604 176.866 106.82C176.254 107.036 175.618 107.144 174.958 107.144ZM189.013 107.144C188.161 107.144 187.423 106.958 186.799 106.586C186.187 106.214 185.713 105.68 185.377 104.984C185.041 104.288 184.873 103.454 184.873 102.482C184.873 101.522 185.041 100.694 185.377 99.998C185.713 99.302 186.187 98.768 186.799 98.396C187.423 98.012 188.161 97.82 189.013 97.82C189.853 97.82 190.579 98.012 191.191 98.396C191.815 98.768 192.295 99.302 192.631 99.998C192.979 100.694 193.153 101.522 193.153 102.482C193.153 103.454 192.979 104.288 192.631 104.984C192.295 105.68 191.815 106.214 191.191 106.586C190.579 106.958 189.853 107.144 189.013 107.144ZM189.013 106.208C189.925 106.208 190.657 105.89 191.209 105.254C191.761 104.618 192.037 103.694 192.037 102.482C192.037 101.27 191.761 100.346 191.209 99.71C190.657 99.074 189.925 98.756 189.013 98.756C188.089 98.756 187.351 99.074 186.799 99.71C186.259 100.346 185.989 101.27 185.989 102.482C185.989 103.694 186.259 104.618 186.799 105.254C187.351 105.89 188.089 106.208 189.013 106.208ZM195.557 107V99.998C195.557 99.674 195.545 99.344 195.521 99.008C195.497 98.672 195.461 98.33 195.413 97.982H196.493L196.655 100.052H196.438C196.703 99.332 197.129 98.78 197.717 98.396C198.305 98.012 198.989 97.82 199.769 97.82C200.837 97.82 201.641 98.102 202.181 98.666C202.733 99.23 203.009 100.112 203.009 101.312V107H201.911V101.402C201.911 100.478 201.725 99.812 201.353 99.404C200.981 98.984 200.405 98.774 199.625 98.774C198.713 98.774 197.987 99.05 197.447 99.602C196.919 100.154 196.655 100.898 196.655 101.834V107H195.557ZM210.551 107V99.998C210.551 99.674 210.539 99.344 210.515 99.008C210.491 98.672 210.455 98.33 210.407 97.982H211.487L211.649 100.052H211.433C211.661 99.344 212.039 98.798 212.567 98.414C213.095 98.018 213.737 97.82 214.493 97.82C215.261 97.82 215.885 98.006 216.365 98.378C216.845 98.75 217.163 99.326 217.319 100.106H217.049C217.265 99.41 217.661 98.858 218.237 98.45C218.813 98.03 219.491 97.82 220.271 97.82C221.255 97.82 221.999 98.102 222.503 98.666C223.007 99.23 223.259 100.112 223.259 101.312V107H222.161V101.384C222.161 100.472 221.999 99.812 221.675 99.404C221.351 98.984 220.823 98.774 220.091 98.774C219.275 98.774 218.627 99.05 218.147 99.602C217.679 100.154 217.445 100.898 217.445 101.834V107H216.347V101.384C216.347 100.472 216.185 99.812 215.861 99.404C215.537 98.984 215.015 98.774 214.295 98.774C213.479 98.774 212.831 99.05 212.351 99.602C211.883 100.154 211.649 100.898 211.649 101.834V107H210.551ZM229.759 107.144C228.907 107.144 228.169 106.958 227.545 106.586C226.933 106.214 226.459 105.68 226.123 104.984C225.787 104.288 225.619 103.454 225.619 102.482C225.619 101.522 225.787 100.694 226.123 99.998C226.459 99.302 226.933 98.768 227.545 98.396C228.169 98.012 228.907 97.82 229.759 97.82C230.599 97.82 231.325 98.012 231.937 98.396C232.561 98.768 233.041 99.302 233.377 99.998C233.725 100.694 233.899 101.522 233.899 102.482C233.899 103.454 233.725 104.288 233.377 104.984C233.041 105.68 232.561 106.214 231.937 106.586C231.325 106.958 230.599 107.144 229.759 107.144ZM229.759 106.208C230.671 106.208 231.403 105.89 231.955 105.254C232.507 104.618 232.783 103.694 232.783 102.482C232.783 101.27 232.507 100.346 231.955 99.71C231.403 99.074 230.671 98.756 229.759 98.756C228.835 98.756 228.097 99.074 227.545 99.71C227.005 100.346 226.735 101.27 226.735 102.482C226.735 103.694 227.005 104.618 227.545 105.254C228.097 105.89 228.835 106.208 229.759 106.208ZM240.551 107.144C239.711 107.144 238.991 106.934 238.391 106.514C237.803 106.082 237.407 105.488 237.203 104.732H237.401V107H236.303V93.752H237.401V100.214H237.203C237.407 99.47 237.803 98.888 238.391 98.468C238.991 98.036 239.711 97.82 240.551 97.82C241.367 97.82 242.069 98.012 242.657 98.396C243.257 98.768 243.719 99.302 244.043 99.998C244.379 100.682 244.547 101.516 244.547 102.5C244.547 103.46 244.379 104.288 244.043 104.984C243.707 105.68 243.239 106.214 242.639 106.586C242.051 106.958 241.355 107.144 240.551 107.144ZM240.389 106.208C241.313 106.208 242.051 105.896 242.603 105.272C243.155 104.636 243.431 103.712 243.431 102.5C243.431 101.288 243.155 100.364 242.603 99.728C242.051 99.08 241.313 98.756 240.389 98.756C239.477 98.756 238.745 99.074 238.193 99.71C237.653 100.346 237.383 101.27 237.383 102.482C237.383 103.694 237.653 104.618 238.193 105.254C238.745 105.89 239.477 106.208 240.389 106.208ZM246.937 107V97.982H248.035V107H246.937ZM246.757 95.768V94.4H248.233V95.768H246.757ZM251.033 107V93.752H252.131V107H251.033ZM258.999 107.144C257.631 107.144 256.545 106.736 255.741 105.92C254.949 105.104 254.553 103.97 254.553 102.518C254.553 101.558 254.727 100.73 255.075 100.034C255.435 99.338 255.933 98.798 256.569 98.414C257.205 98.018 257.943 97.82 258.783 97.82C259.587 97.82 260.265 97.994 260.817 98.342C261.369 98.678 261.795 99.164 262.095 99.8C262.395 100.424 262.545 101.168 262.545 102.032V102.536H255.345V101.744H261.861L261.555 101.978C261.555 100.958 261.321 100.16 260.853 99.584C260.385 98.996 259.689 98.702 258.765 98.702C257.781 98.702 257.013 99.044 256.461 99.728C255.909 100.4 255.633 101.294 255.633 102.41V102.536C255.633 103.736 255.927 104.648 256.515 105.272C257.115 105.896 257.949 106.208 259.017 106.208C259.569 106.208 260.085 106.124 260.565 105.956C261.045 105.788 261.507 105.5 261.951 105.092L262.401 105.902C262.017 106.298 261.519 106.604 260.907 106.82C260.295 107.036 259.659 107.144 258.999 107.144ZM272.91 107.144C272.094 107.144 271.386 106.958 270.786 106.586C270.186 106.214 269.724 105.68 269.4 104.984C269.076 104.288 268.914 103.454 268.914 102.482C268.914 101.51 269.076 100.682 269.4 99.998C269.736 99.302 270.204 98.768 270.804 98.396C271.404 98.012 272.106 97.82 272.91 97.82C273.738 97.82 274.452 98.036 275.052 98.468C275.664 98.9 276.066 99.488 276.258 100.232H276.042L276.222 97.982H277.284C277.248 98.33 277.212 98.672 277.176 99.008C277.152 99.344 277.14 99.674 277.14 99.998V107H276.042V104.75H276.24C276.048 105.494 275.646 106.082 275.034 106.514C274.434 106.934 273.726 107.144 272.91 107.144ZM273.054 106.208C273.978 106.208 274.71 105.89 275.25 105.254C275.79 104.618 276.06 103.694 276.06 102.482C276.06 101.27 275.79 100.346 275.25 99.71C274.71 99.074 273.978 98.756 273.054 98.756C272.13 98.756 271.392 99.074 270.84 99.71C270.3 100.346 270.03 101.27 270.03 102.482C270.03 103.694 270.3 104.618 270.84 105.254C271.392 105.89 272.13 106.208 273.054 106.208ZM280.125 107V99.998C280.125 99.674 280.113 99.344 280.089 99.008C280.065 98.672 280.029 98.33 279.981 97.982H281.061L281.223 100.052H281.007C281.271 99.332 281.697 98.78 282.285 98.396C282.873 98.012 283.557 97.82 284.337 97.82C285.405 97.82 286.209 98.102 286.749 98.666C287.301 99.23 287.577 100.112 287.577 101.312V107H286.479V101.402C286.479 100.478 286.293 99.812 285.921 99.404C285.549 98.984 284.973 98.774 284.193 98.774C283.281 98.774 282.555 99.05 282.015 99.602C281.487 100.154 281.223 100.898 281.223 101.834V107H280.125ZM293.933 107.144C293.129 107.144 292.427 106.958 291.827 106.586C291.227 106.214 290.765 105.68 290.441 104.984C290.117 104.288 289.955 103.454 289.955 102.482C289.955 101.51 290.117 100.682 290.441 99.998C290.765 99.302 291.227 98.768 291.827 98.396C292.427 98.012 293.129 97.82 293.933 97.82C294.761 97.82 295.475 98.036 296.075 98.468C296.687 98.888 297.095 99.47 297.299 100.214H297.083V93.752H298.181V107H297.101V104.732H297.299C297.095 105.488 296.687 106.082 296.075 106.514C295.475 106.934 294.761 107.144 293.933 107.144ZM294.077 106.208C294.989 106.208 295.721 105.89 296.273 105.254C296.837 104.618 297.119 103.694 297.119 102.482C297.119 101.27 296.837 100.346 296.273 99.71C295.721 99.074 294.989 98.756 294.077 98.756C293.165 98.756 292.433 99.074 291.881 99.71C291.341 100.346 291.071 101.27 291.071 102.482C291.071 103.694 291.341 104.618 291.881 105.254C292.433 105.89 293.165 106.208 294.077 106.208ZM309.318 107.144C308.466 107.144 307.728 106.958 307.104 106.586C306.492 106.214 306.018 105.68 305.682 104.984C305.346 104.288 305.178 103.454 305.178 102.482C305.178 101.522 305.346 100.694 305.682 99.998C306.018 99.302 306.492 98.768 307.104 98.396C307.728 98.012 308.466 97.82 309.318 97.82C310.158 97.82 310.884 98.012 311.496 98.396C312.12 98.768 312.6 99.302 312.936 99.998C313.284 100.694 313.458 101.522 313.458 102.482C313.458 103.454 313.284 104.288 312.936 104.984C312.6 105.68 312.12 106.214 311.496 106.586C310.884 106.958 310.158 107.144 309.318 107.144ZM309.318 106.208C310.23 106.208 310.962 105.89 311.514 105.254C312.066 104.618 312.342 103.694 312.342 102.482C312.342 101.27 312.066 100.346 311.514 99.71C310.962 99.074 310.23 98.756 309.318 98.756C308.394 98.756 307.656 99.074 307.104 99.71C306.564 100.346 306.294 101.27 306.294 102.482C306.294 103.694 306.564 104.618 307.104 105.254C307.656 105.89 308.394 106.208 309.318 106.208ZM315.861 107V99.998C315.861 99.674 315.849 99.344 315.825 99.008C315.801 98.672 315.765 98.33 315.717 97.982H316.797L316.959 100.052H316.743C317.007 99.332 317.433 98.78 318.021 98.396C318.609 98.012 319.293 97.82 320.073 97.82C321.141 97.82 321.945 98.102 322.485 98.666C323.037 99.23 323.313 100.112 323.313 101.312V107H322.215V101.402C322.215 100.478 322.029 99.812 321.657 99.404C321.285 98.984 320.709 98.774 319.929 98.774C319.017 98.774 318.291 99.05 317.751 99.602C317.223 100.154 316.959 100.898 316.959 101.834V107H315.861ZM326.267 107V93.752H327.365V107H326.267ZM330.363 107V97.982H331.461V107H330.363ZM330.183 95.768V94.4H331.659V95.768H330.183ZM334.459 107V99.998C334.459 99.674 334.447 99.344 334.423 99.008C334.399 98.672 334.363 98.33 334.315 97.982H335.395L335.557 100.052H335.341C335.605 99.332 336.031 98.78 336.619 98.396C337.207 98.012 337.891 97.82 338.671 97.82C339.739 97.82 340.543 98.102 341.083 98.666C341.635 99.23 341.911 100.112 341.911 101.312V107H340.813V101.402C340.813 100.478 340.627 99.812 340.255 99.404C339.883 98.984 339.307 98.774 338.527 98.774C337.615 98.774 336.889 99.05 336.349 99.602C335.821 100.154 335.557 100.898 335.557 101.834V107H334.459ZM348.735 107.144C347.367 107.144 346.281 106.736 345.477 105.92C344.685 105.104 344.289 103.97 344.289 102.518C344.289 101.558 344.463 100.73 344.811 100.034C345.171 99.338 345.669 98.798 346.305 98.414C346.941 98.018 347.679 97.82 348.519 97.82C349.323 97.82 350.001 97.994 350.553 98.342C351.105 98.678 351.531 99.164 351.831 99.8C352.131 100.424 352.281 101.168 352.281 102.032V102.536H345.081V101.744H351.597L351.291 101.978C351.291 100.958 351.057 100.16 350.589 99.584C350.121 98.996 349.425 98.702 348.501 98.702C347.517 98.702 346.749 99.044 346.197 99.728C345.645 100.4 345.369 101.294 345.369 102.41V102.536C345.369 103.736 345.663 104.648 346.251 105.272C346.851 105.896 347.685 106.208 348.753 106.208C349.305 106.208 349.821 106.124 350.301 105.956C350.781 105.788 351.243 105.5 351.687 105.092L352.137 105.902C351.753 106.298 351.255 106.604 350.643 106.82C350.031 107.036 349.395 107.144 348.735 107.144ZM1.926 135V126.864H0.126V125.982H2.196L1.926 126.27V124.704C1.926 123.744 2.166 123 2.646 122.472C3.126 121.944 3.81 121.68 4.698 121.68C4.926 121.68 5.16 121.704 5.4 121.752C5.64 121.788 5.838 121.836 5.994 121.896V122.868C5.85 122.808 5.676 122.754 5.472 122.706C5.268 122.658 5.052 122.634 4.824 122.634C4.428 122.634 4.092 122.718 3.816 122.886C3.552 123.054 3.348 123.3 3.204 123.624C3.072 123.936 3.006 124.338 3.006 124.83V126.27L2.826 125.982H5.598V126.864H3.024V135H1.926ZM10.6303 135.144C9.77827 135.144 9.04027 134.958 8.41627 134.586C7.80427 134.214 7.33027 133.68 6.99427 132.984C6.65827 132.288 6.49027 131.454 6.49027 130.482C6.49027 129.522 6.65827 128.694 6.99427 127.998C7.33027 127.302 7.80427 126.768 8.41627 126.396C9.04027 126.012 9.77827 125.82 10.6303 125.82C11.4703 125.82 12.1963 126.012 12.8083 126.396C13.4323 126.768 13.9123 127.302 14.2483 127.998C14.5963 128.694 14.7703 129.522 14.7703 130.482C14.7703 131.454 14.5963 132.288 14.2483 132.984C13.9123 133.68 13.4323 134.214 12.8083 134.586C12.1963 134.958 11.4703 135.144 10.6303 135.144ZM10.6303 134.208C11.5423 134.208 12.2743 133.89 12.8263 133.254C13.3783 132.618 13.6543 131.694 13.6543 130.482C13.6543 129.27 13.3783 128.346 12.8263 127.71C12.2743 127.074 11.5423 126.756 10.6303 126.756C9.70627 126.756 8.96827 127.074 8.41627 127.71C7.87627 128.346 7.60627 129.27 7.60627 130.482C7.60627 131.694 7.87627 132.618 8.41627 133.254C8.96827 133.89 9.70627 134.208 10.6303 134.208ZM17.1557 135V128.088C17.1557 127.74 17.1437 127.392 17.1197 127.044C17.1077 126.684 17.0777 126.33 17.0297 125.982H18.1097L18.2537 128.052L18.0377 128.07C18.1577 127.566 18.3737 127.152 18.6857 126.828C18.9977 126.492 19.3577 126.24 19.7657 126.072C20.1737 125.904 20.5937 125.82 21.0257 125.82C21.1817 125.82 21.3257 125.832 21.4577 125.856C21.6017 125.868 21.7337 125.892 21.8537 125.928L21.8177 126.918C21.6737 126.87 21.5297 126.84 21.3857 126.828C21.2417 126.816 21.0857 126.81 20.9177 126.81C20.3777 126.81 19.9037 126.942 19.4957 127.206C19.0997 127.47 18.7937 127.806 18.5777 128.214C18.3617 128.622 18.2537 129.036 18.2537 129.456V135H17.1557ZM31.907 135.144C30.539 135.144 29.453 134.736 28.649 133.92C27.857 133.104 27.461 131.97 27.461 130.518C27.461 129.558 27.635 128.73 27.983 128.034C28.343 127.338 28.841 126.798 29.477 126.414C30.113 126.018 30.851 125.82 31.691 125.82C32.495 125.82 33.173 125.994 33.725 126.342C34.277 126.678 34.703 127.164 35.003 127.8C35.303 128.424 35.453 129.168 35.453 130.032V130.536H28.253V129.744H34.769L34.463 129.978C34.463 128.958 34.229 128.16 33.761 127.584C33.293 126.996 32.597 126.702 31.673 126.702C30.689 126.702 29.921 127.044 29.369 127.728C28.817 128.4 28.541 129.294 28.541 130.41V130.536C28.541 131.736 28.835 132.648 29.423 133.272C30.023 133.896 30.857 134.208 31.925 134.208C32.477 134.208 32.993 134.124 33.473 133.956C33.953 133.788 34.415 133.5 34.859 133.092L35.309 133.902C34.925 134.298 34.427 134.604 33.815 134.82C33.203 135.036 32.567 135.144 31.907 135.144ZM40.3689 135L36.5349 125.982H37.7589L41.1789 134.316H40.7109L44.1669 125.982H45.3369L41.5029 135H40.3689ZM50.9265 135.144C49.5585 135.144 48.4725 134.736 47.6685 133.92C46.8765 133.104 46.4805 131.97 46.4805 130.518C46.4805 129.558 46.6545 128.73 47.0025 128.034C47.3625 127.338 47.8605 126.798 48.4965 126.414C49.1325 126.018 49.8705 125.82 50.7105 125.82C51.5145 125.82 52.1925 125.994 52.7445 126.342C53.2965 126.678 53.7225 127.164 54.0225 127.8C54.3225 128.424 54.4725 129.168 54.4725 130.032V130.536H47.2725V129.744H53.7885L53.4825 129.978C53.4825 128.958 53.2485 128.16 52.7805 127.584C52.3125 126.996 51.6165 126.702 50.6925 126.702C49.7085 126.702 48.9405 127.044 48.3885 127.728C47.8365 128.4 47.5605 129.294 47.5605 130.41V130.536C47.5605 131.736 47.8545 132.648 48.4425 133.272C49.0425 133.896 49.8765 134.208 50.9445 134.208C51.4965 134.208 52.0125 134.124 52.4925 133.956C52.9725 133.788 53.4345 133.5 53.8785 133.092L54.3285 133.902C53.9445 134.298 53.4465 134.604 52.8345 134.82C52.2225 135.036 51.5865 135.144 50.9265 135.144ZM56.8119 135V128.088C56.8119 127.74 56.7999 127.392 56.7759 127.044C56.7639 126.684 56.7339 126.33 56.6859 125.982H57.7659L57.9099 128.052L57.6939 128.07C57.8139 127.566 58.0299 127.152 58.3419 126.828C58.6539 126.492 59.0139 126.24 59.4219 126.072C59.8299 125.904 60.2499 125.82 60.6819 125.82C60.8379 125.82 60.9819 125.832 61.1139 125.856C61.2579 125.868 61.3899 125.892 61.5099 125.928L61.4739 126.918C61.3299 126.87 61.1859 126.84 61.0419 126.828C60.8979 126.816 60.7419 126.81 60.5739 126.81C60.0339 126.81 59.5599 126.942 59.1519 127.206C58.7559 127.47 58.4499 127.806 58.2339 128.214C58.0179 128.622 57.9099 129.036 57.9099 129.456V135H56.8119ZM63.2363 139.086L62.9663 138.132C63.5303 138 63.9983 137.838 64.3703 137.646C64.7423 137.466 65.0543 137.226 65.3063 136.926C65.5583 136.626 65.7803 136.254 65.9723 135.81L66.4403 134.73L66.4223 135.216L62.4803 125.982H63.7043L67.1423 134.316H66.6923L70.0943 125.982H71.2823L67.1063 135.864C66.8783 136.416 66.6263 136.872 66.3503 137.232C66.0863 137.604 65.7983 137.91 65.4863 138.15C65.1743 138.402 64.8323 138.6 64.4603 138.744C64.0883 138.888 63.6803 139.002 63.2363 139.086ZM76.5658 135.144C75.7138 135.144 74.9758 134.958 74.3518 134.586C73.7398 134.214 73.2658 133.68 72.9298 132.984C72.5938 132.288 72.4258 131.454 72.4258 130.482C72.4258 129.522 72.5938 128.694 72.9298 127.998C73.2658 127.302 73.7398 126.768 74.3518 126.396C74.9758 126.012 75.7138 125.82 76.5658 125.82C77.4058 125.82 78.1318 126.012 78.7438 126.396C79.3678 126.768 79.8478 127.302 80.1838 127.998C80.5318 128.694 80.7058 129.522 80.7058 130.482C80.7058 131.454 80.5318 132.288 80.1838 132.984C79.8478 133.68 79.3678 134.214 78.7438 134.586C78.1318 134.958 77.4058 135.144 76.5658 135.144ZM76.5658 134.208C77.4778 134.208 78.2098 133.89 78.7618 133.254C79.3138 132.618 79.5898 131.694 79.5898 130.482C79.5898 129.27 79.3138 128.346 78.7618 127.71C78.2098 127.074 77.4778 126.756 76.5658 126.756C75.6418 126.756 74.9038 127.074 74.3518 127.71C73.8118 128.346 73.5418 129.27 73.5418 130.482C73.5418 131.694 73.8118 132.618 74.3518 133.254C74.9038 133.89 75.6418 134.208 76.5658 134.208ZM83.1092 135V127.998C83.1092 127.674 83.0972 127.344 83.0732 127.008C83.0492 126.672 83.0132 126.33 82.9652 125.982H84.0452L84.2072 128.052H83.9912C84.2552 127.332 84.6812 126.78 85.2692 126.396C85.8572 126.012 86.5412 125.82 87.3212 125.82C88.3892 125.82 89.1932 126.102 89.7332 126.666C90.2852 127.23 90.5612 128.112 90.5612 129.312V135H89.4632V129.402C89.4632 128.478 89.2772 127.812 88.9052 127.404C88.5332 126.984 87.9572 126.774 87.1772 126.774C86.2652 126.774 85.5392 127.05 84.9992 127.602C84.4712 128.154 84.2072 128.898 84.2072 129.834V135H83.1092ZM97.3855 135.144C96.0175 135.144 94.9315 134.736 94.1275 133.92C93.3355 133.104 92.9395 131.97 92.9395 130.518C92.9395 129.558 93.1135 128.73 93.4615 128.034C93.8215 127.338 94.3195 126.798 94.9555 126.414C95.5915 126.018 96.3295 125.82 97.1695 125.82C97.9735 125.82 98.6515 125.994 99.2035 126.342C99.7555 126.678 100.181 127.164 100.481 127.8C100.781 128.424 100.931 129.168 100.931 130.032V130.536H93.7315V129.744H100.247L99.9415 129.978C99.9415 128.958 99.7075 128.16 99.2395 127.584C98.7715 126.996 98.0755 126.702 97.1515 126.702C96.1675 126.702 95.3995 127.044 94.8475 127.728C94.2955 128.4 94.0195 129.294 94.0195 130.41V130.536C94.0195 131.736 94.3135 132.648 94.9015 133.272C95.5015 133.896 96.3355 134.208 97.4035 134.208C97.9555 134.208 98.4715 134.124 98.9515 133.956C99.4315 133.788 99.8935 133.5 100.337 133.092L100.787 133.902C100.403 134.298 99.9055 134.604 99.2935 134.82C98.6815 135.036 98.0455 135.144 97.3855 135.144Z" fill="white"/>
<path d="M6.528 193.128C5.71733 193.128 4.96 192.984 4.256 192.696C3.552 192.397 2.93867 191.987 2.416 191.464C1.89333 190.941 1.48267 190.328 1.184 189.624C0.896 188.92 0.752 188.163 0.752 187.352C0.752 186.531 0.896 185.773 1.184 185.08C1.48267 184.376 1.89333 183.768 2.416 183.256C2.93867 182.733 3.54667 182.328 4.24 182.04C4.944 181.741 5.70667 181.592 6.528 181.592C7.34933 181.592 8.10667 181.741 8.8 182.04C9.504 182.328 10.112 182.733 10.624 183.256C11.1467 183.768 11.552 184.376 11.84 185.08C12.1387 185.773 12.288 186.531 12.288 187.352C12.288 188.163 12.1387 188.92 11.84 189.624C11.552 190.328 11.1467 190.941 10.624 191.464C10.112 191.987 9.504 192.397 8.8 192.696C8.10667 192.984 7.34933 193.128 6.528 193.128ZM6.704 190.808C5.69067 190.808 4.89067 190.488 4.304 189.848C3.728 189.208 3.44 188.36 3.44 187.304C3.44 186.259 3.728 185.432 4.304 184.824C4.89067 184.216 5.69067 183.912 6.704 183.912C7.13067 183.912 7.54667 183.992 7.952 184.152C8.368 184.312 8.70933 184.525 8.976 184.792L8.64 185.464C8.34133 185.187 8.02667 184.989 7.696 184.872C7.36533 184.744 7.04 184.68 6.72 184.68C5.97333 184.68 5.38667 184.915 4.96 185.384C4.544 185.843 4.336 186.488 4.336 187.32C4.336 188.152 4.544 188.813 4.96 189.304C5.38667 189.784 5.97333 190.024 6.72 190.024C7.04 190.024 7.36533 189.965 7.696 189.848C8.02667 189.72 8.34133 189.517 8.64 189.24L8.976 189.928C8.70933 190.195 8.36267 190.408 7.936 190.568C7.52 190.728 7.10933 190.808 6.704 190.808ZM6.528 192.504C7.25333 192.504 7.92533 192.376 8.544 192.12C9.16267 191.853 9.70133 191.485 10.16 191.016C10.6293 190.547 10.992 190.003 11.248 189.384C11.504 188.755 11.632 188.077 11.632 187.352C11.632 186.627 11.504 185.955 11.248 185.336C10.992 184.707 10.6293 184.163 10.16 183.704C9.70133 183.235 9.16267 182.872 8.544 182.616C7.92533 182.349 7.25333 182.216 6.528 182.216C5.80267 182.216 5.12533 182.349 4.496 182.616C3.87733 182.872 3.33333 183.235 2.864 183.704C2.40533 184.163 2.048 184.707 1.792 185.336C1.536 185.955 1.408 186.627 1.408 187.352C1.408 188.077 1.536 188.755 1.792 189.384C2.048 190.003 2.40533 190.547 2.864 191.016C3.33333 191.485 3.87733 191.853 4.496 192.12C5.12533 192.376 5.80267 192.504 6.528 192.504ZM16.5841 193V182.584H12.4881V181.72H21.6561V182.584H17.5761V193H16.5841ZM21.9683 193V186.856C21.9683 186.547 21.9576 186.237 21.9363 185.928C21.9256 185.608 21.8989 185.293 21.8563 184.984H22.8163L22.9443 186.824L22.7523 186.84C22.8589 186.392 23.0509 186.024 23.3283 185.736C23.6056 185.437 23.9256 185.213 24.2883 185.064C24.6509 184.915 25.0243 184.84 25.4083 184.84C25.5469 184.84 25.6749 184.851 25.7923 184.872C25.9203 184.883 26.0376 184.904 26.1443 184.936L26.1123 185.816C25.9843 185.773 25.8563 185.747 25.7283 185.736C25.6003 185.725 25.4616 185.72 25.3123 185.72C24.8323 185.72 24.4109 185.837 24.0483 186.072C23.6963 186.307 23.4243 186.605 23.2323 186.968C23.0403 187.331 22.9443 187.699 22.9443 188.072V193H21.9683ZM30.5243 193.128C29.7989 193.128 29.1696 192.963 28.6363 192.632C28.1029 192.301 27.6923 191.827 27.4043 191.208C27.1163 190.589 26.9723 189.848 26.9723 188.984C26.9723 188.12 27.1163 187.384 27.4043 186.776C27.7029 186.157 28.1189 185.683 28.6523 185.352C29.1856 185.011 29.8096 184.84 30.5243 184.84C31.2603 184.84 31.8949 185.032 32.4283 185.416C32.9723 185.8 33.3296 186.323 33.5003 186.984H33.3083L33.4683 184.984H34.4123C34.3803 185.293 34.3483 185.597 34.3163 185.896C34.2949 186.195 34.2843 186.488 34.2843 186.776V193H33.3083V191H33.4843C33.3136 191.661 32.9563 192.184 32.4123 192.568C31.8789 192.941 31.2496 193.128 30.5243 193.128ZM30.6523 192.296C31.4736 192.296 32.1243 192.013 32.6043 191.448C33.0843 190.883 33.3243 190.061 33.3243 188.984C33.3243 187.907 33.0843 187.085 32.6043 186.52C32.1243 185.955 31.4736 185.672 30.6523 185.672C29.8309 185.672 29.1749 185.955 28.6843 186.52C28.2043 187.085 27.9643 187.907 27.9643 188.984C27.9643 190.061 28.2043 190.883 28.6843 191.448C29.1749 192.013 29.8309 192.296 30.6523 192.296ZM37.3214 193V185.768H35.7214V184.984H37.5614L37.3214 185.24V183.848C37.3214 182.995 37.5347 182.333 37.9614 181.864C38.388 181.395 38.996 181.16 39.7854 181.16C39.988 181.16 40.196 181.181 40.4094 181.224C40.6227 181.256 40.7987 181.299 40.9374 181.352V182.216C40.8094 182.163 40.6547 182.115 40.4734 182.072C40.292 182.029 40.1 182.008 39.8974 182.008C39.5454 182.008 39.2467 182.083 39.0014 182.232C38.7667 182.381 38.5854 182.6 38.4574 182.888C38.34 183.165 38.2814 183.523 38.2814 183.96V185.24L38.1214 184.984H40.5854V185.768H38.2974V193H37.3214ZM45.0868 193.128C44.3614 193.128 43.7321 192.963 43.1988 192.632C42.6654 192.301 42.2548 191.827 41.9668 191.208C41.6788 190.589 41.5348 189.848 41.5348 188.984C41.5348 188.12 41.6788 187.384 41.9668 186.776C42.2654 186.157 42.6814 185.683 43.2148 185.352C43.7481 185.011 44.3721 184.84 45.0868 184.84C45.8228 184.84 46.4574 185.032 46.9908 185.416C47.5348 185.8 47.8921 186.323 48.0628 186.984H47.8708L48.0308 184.984H48.9748C48.9428 185.293 48.9108 185.597 48.8788 185.896C48.8574 186.195 48.8468 186.488 48.8468 186.776V193H47.8708V191H48.0468C47.8761 191.661 47.5188 192.184 46.9748 192.568C46.4414 192.941 45.8121 193.128 45.0868 193.128ZM45.2148 192.296C46.0361 192.296 46.6868 192.013 47.1668 191.448C47.6468 190.883 47.8868 190.061 47.8868 188.984C47.8868 187.907 47.6468 187.085 47.1668 186.52C46.6868 185.955 46.0361 185.672 45.2148 185.672C44.3934 185.672 43.7374 185.955 43.2468 186.52C42.7668 187.085 42.5268 187.907 42.5268 188.984C42.5268 190.061 42.7668 190.883 43.2468 191.448C43.7374 192.013 44.3934 192.296 45.2148 192.296ZM51.4999 193V181.224H52.4759V193H51.4999ZM58.5965 196.568C57.9245 196.568 57.2952 196.477 56.7085 196.296C56.1325 196.115 55.6152 195.843 55.1565 195.48L55.5085 194.728C55.8498 194.973 56.1752 195.165 56.4845 195.304C56.8045 195.453 57.1352 195.56 57.4765 195.624C57.8178 195.699 58.1858 195.736 58.5805 195.736C59.3912 195.736 60.0045 195.517 60.4205 195.08C60.8365 194.653 61.0445 194.035 61.0445 193.224V190.68H61.2205C61.0498 191.352 60.6925 191.88 60.1485 192.264C59.6045 192.637 58.9645 192.824 58.2285 192.824C57.4925 192.824 56.8525 192.664 56.3085 192.344C55.7752 192.013 55.3592 191.549 55.0605 190.952C54.7725 190.344 54.6285 189.635 54.6285 188.824C54.6285 188.013 54.7725 187.309 55.0605 186.712C55.3592 186.115 55.7752 185.656 56.3085 185.336C56.8525 185.005 57.4925 184.84 58.2285 184.84C58.9645 184.84 59.6045 185.032 60.1485 185.416C60.6925 185.789 61.0498 186.317 61.2205 187L61.0445 186.824L61.1885 184.984H62.1485C62.1058 185.293 62.0738 185.597 62.0525 185.896C62.0312 186.195 62.0205 186.488 62.0205 186.776V193.08C62.0205 194.232 61.7272 195.101 61.1405 195.688C60.5645 196.275 59.7165 196.568 58.5965 196.568ZM58.3405 191.992C59.1725 191.992 59.8285 191.715 60.3085 191.16C60.7992 190.605 61.0445 189.827 61.0445 188.824C61.0445 187.832 60.7992 187.059 60.3085 186.504C59.8285 185.949 59.1725 185.672 58.3405 185.672C57.5085 185.672 56.8472 185.949 56.3565 186.504C55.8658 187.059 55.6205 187.832 55.6205 188.824C55.6205 189.827 55.8658 190.605 56.3565 191.16C56.8472 191.715 57.5085 191.992 58.3405 191.992ZM67.6961 193.128C66.9708 193.128 66.3415 192.963 65.8081 192.632C65.2748 192.301 64.8641 191.827 64.5761 191.208C64.2881 190.589 64.1441 189.848 64.1441 188.984C64.1441 188.12 64.2881 187.384 64.5761 186.776C64.8748 186.157 65.2908 185.683 65.8241 185.352C66.3575 185.011 66.9815 184.84 67.6961 184.84C68.4321 184.84 69.0668 185.032 69.6001 185.416C70.1441 185.8 70.5015 186.323 70.6721 186.984H70.4801L70.6401 184.984H71.5841C71.5521 185.293 71.5201 185.597 71.4881 185.896C71.4668 186.195 71.4561 186.488 71.4561 186.776V193H70.4801V191H70.6561C70.4855 191.661 70.1281 192.184 69.5841 192.568C69.0508 192.941 68.4215 193.128 67.6961 193.128ZM67.8241 192.296C68.6455 192.296 69.2961 192.013 69.7761 191.448C70.2561 190.883 70.4961 190.061 70.4961 188.984C70.4961 187.907 70.2561 187.085 69.7761 186.52C69.2961 185.955 68.6455 185.672 67.8241 185.672C67.0028 185.672 66.3468 185.955 65.8561 186.52C65.3761 187.085 65.1361 187.907 65.1361 188.984C65.1361 190.061 65.3761 190.883 65.8561 191.448C66.3468 192.013 67.0028 192.296 67.8241 192.296ZM74.0933 193V186.856C74.0933 186.547 74.0826 186.237 74.0613 185.928C74.0506 185.608 74.0239 185.293 73.9813 184.984H74.9413L75.0693 186.824L74.8773 186.84C74.9839 186.392 75.1759 186.024 75.4533 185.736C75.7306 185.437 76.0506 185.213 76.4133 185.064C76.7759 184.915 77.1493 184.84 77.5333 184.84C77.6719 184.84 77.7999 184.851 77.9173 184.872C78.0453 184.883 78.1626 184.904 78.2693 184.936L78.2373 185.816C78.1093 185.773 77.9813 185.747 77.8533 185.736C77.7253 185.725 77.5866 185.72 77.4373 185.72C76.9573 185.72 76.5359 185.837 76.1733 186.072C75.8213 186.307 75.5493 186.605 75.3573 186.968C75.1653 187.331 75.0693 187.699 75.0693 188.072V193H74.0933ZM83.9255 193V181.72H88.3095C89.4722 181.72 90.3682 181.997 90.9975 182.552C91.6375 183.107 91.9575 183.885 91.9575 184.888C91.9575 185.869 91.6375 186.643 90.9975 187.208C90.3682 187.773 89.4722 188.056 88.3095 188.056H84.9175V193H83.9255ZM84.9175 187.192H88.2455C89.1308 187.192 89.8028 186.995 90.2615 186.6C90.7202 186.195 90.9495 185.624 90.9495 184.888C90.9495 184.152 90.7202 183.581 90.2615 183.176C89.8028 182.771 89.1308 182.568 88.2455 182.568H84.9175V187.192ZM96.6779 193V182.584H92.5819V181.72H101.75V182.584H97.6699V193H96.6779ZM106.35 193V187.752L106.59 188.504L101.998 181.72H103.15L107.022 187.56H106.734L110.606 181.72H111.71L107.118 188.504L107.342 187.752V193H106.35ZM117.191 193V181.72H118.183V192.12H124.055V193H117.191ZM126.553 193V182.584H122.457V181.72H131.625V182.584H127.545V193H126.553ZM133.332 193V181.72H136.9C138.137 181.72 139.182 181.939 140.036 182.376C140.889 182.803 141.534 183.437 141.972 184.28C142.42 185.112 142.644 186.136 142.644 187.352C142.644 188.568 142.42 189.597 141.972 190.44C141.534 191.283 140.889 191.923 140.036 192.36C139.182 192.787 138.137 193 136.9 193H133.332ZM134.324 192.12H136.82C138.43 192.12 139.63 191.725 140.42 190.936C141.209 190.136 141.604 188.941 141.604 187.352C141.604 185.752 141.209 184.557 140.42 183.768C139.63 182.979 138.43 182.584 136.82 182.584H134.324V192.12ZM149.206 193V192.264L153.318 187.944C153.862 187.379 154.272 186.835 154.55 186.312C154.827 185.779 154.966 185.219 154.966 184.632C154.966 183.928 154.747 183.395 154.31 183.032C153.883 182.669 153.259 182.488 152.438 182.488C151.808 182.488 151.232 182.6 150.71 182.824C150.187 183.048 149.691 183.389 149.222 183.848L148.822 183.048C149.238 182.611 149.771 182.259 150.422 181.992C151.072 181.725 151.766 181.592 152.502 181.592C153.611 181.592 154.464 181.853 155.062 182.376C155.67 182.888 155.974 183.624 155.974 184.584C155.974 185.288 155.798 185.971 155.446 186.632C155.094 187.283 154.592 187.944 153.942 188.616L150.214 192.424V192.12H156.47V193H149.206ZM162.159 193.128C160.901 193.128 159.935 192.637 159.263 191.656C158.591 190.664 158.255 189.235 158.255 187.368C158.255 185.469 158.591 184.035 159.263 183.064C159.935 182.083 160.901 181.592 162.159 181.592C163.429 181.592 164.394 182.083 165.055 183.064C165.727 184.035 166.063 185.464 166.063 187.352C166.063 189.229 165.727 190.664 165.055 191.656C164.383 192.637 163.418 193.128 162.159 193.128ZM162.159 192.248C163.13 192.248 163.855 191.848 164.335 191.048C164.815 190.248 165.055 189.016 165.055 187.352C165.055 185.667 164.815 184.435 164.335 183.656C163.855 182.867 163.13 182.472 162.159 182.472C161.199 182.472 160.474 182.872 159.983 183.672C159.503 184.461 159.263 185.683 159.263 187.336C159.263 189.011 159.503 190.248 159.983 191.048C160.474 191.848 161.199 192.248 162.159 192.248ZM168.393 193V192.264L172.505 187.944C173.049 187.379 173.46 186.835 173.737 186.312C174.014 185.779 174.153 185.219 174.153 184.632C174.153 183.928 173.934 183.395 173.497 183.032C173.07 182.669 172.446 182.488 171.625 182.488C170.996 182.488 170.42 182.6 169.897 182.824C169.374 183.048 168.878 183.389 168.409 183.848L168.009 183.048C168.425 182.611 168.958 182.259 169.609 181.992C170.26 181.725 170.953 181.592 171.689 181.592C172.798 181.592 173.652 181.853 174.249 182.376C174.857 182.888 175.161 183.624 175.161 184.584C175.161 185.288 174.985 185.971 174.633 186.632C174.281 187.283 173.78 187.944 173.129 188.616L169.401 192.424V192.12H175.657V193H168.393ZM181.347 193.128C180.088 193.128 179.123 192.637 178.451 191.656C177.779 190.664 177.443 189.235 177.443 187.368C177.443 185.469 177.779 184.035 178.451 183.064C179.123 182.083 180.088 181.592 181.347 181.592C182.616 181.592 183.582 182.083 184.243 183.064C184.915 184.035 185.251 185.464 185.251 187.352C185.251 189.229 184.915 190.664 184.243 191.656C183.571 192.637 182.606 193.128 181.347 193.128ZM181.347 192.248C182.318 192.248 183.043 191.848 183.523 191.048C184.003 190.248 184.243 189.016 184.243 187.352C184.243 185.667 184.003 184.435 183.523 183.656C183.043 182.867 182.318 182.472 181.347 182.472C180.387 182.472 179.662 182.872 179.171 183.672C178.691 184.461 178.451 185.683 178.451 187.336C178.451 189.011 178.691 190.248 179.171 191.048C179.662 191.848 180.387 192.248 181.347 192.248ZM187.213 193V191.624H188.573V193H187.213ZM194.135 193L199.047 181.72H199.943L204.935 193H203.895L202.487 189.752L202.951 189.992H196.007L196.551 189.752L195.175 193H194.135ZM199.479 182.92L196.743 189.336L196.375 189.144H202.583L202.311 189.336L199.511 182.92H199.479ZM206.687 193V181.224H207.663V193H206.687ZM210.328 193V181.224H211.304V193H210.328ZM218.031 193V186.856C218.031 186.547 218.02 186.237 217.999 185.928C217.988 185.608 217.961 185.293 217.919 184.984H218.879L219.007 186.824L218.815 186.84C218.921 186.392 219.113 186.024 219.391 185.736C219.668 185.437 219.988 185.213 220.351 185.064C220.713 184.915 221.087 184.84 221.471 184.84C221.609 184.84 221.737 184.851 221.855 184.872C221.983 184.883 222.1 184.904 222.207 184.936L222.175 185.816C222.047 185.773 221.919 185.747 221.791 185.736C221.663 185.725 221.524 185.72 221.375 185.72C220.895 185.72 220.473 185.837 220.111 186.072C219.759 186.307 219.487 186.605 219.295 186.968C219.103 187.331 219.007 187.699 219.007 188.072V193H218.031ZM223.625 193V184.984H224.601V193H223.625ZM223.465 183.016V181.8H224.777V183.016H223.465ZM230.722 196.568C230.05 196.568 229.42 196.477 228.834 196.296C228.258 196.115 227.74 195.843 227.282 195.48L227.634 194.728C227.975 194.973 228.3 195.165 228.61 195.304C228.93 195.453 229.26 195.56 229.602 195.624C229.943 195.699 230.311 195.736 230.706 195.736C231.516 195.736 232.13 195.517 232.546 195.08C232.962 194.653 233.17 194.035 233.17 193.224V190.68H233.346C233.175 191.352 232.818 191.88 232.274 192.264C231.73 192.637 231.09 192.824 230.354 192.824C229.618 192.824 228.978 192.664 228.434 192.344C227.9 192.013 227.484 191.549 227.186 190.952C226.898 190.344 226.754 189.635 226.754 188.824C226.754 188.013 226.898 187.309 227.186 186.712C227.484 186.115 227.9 185.656 228.434 185.336C228.978 185.005 229.618 184.84 230.354 184.84C231.09 184.84 231.73 185.032 232.274 185.416C232.818 185.789 233.175 186.317 233.346 187L233.17 186.824L233.314 184.984H234.274C234.231 185.293 234.199 185.597 234.178 185.896C234.156 186.195 234.146 186.488 234.146 186.776V193.08C234.146 194.232 233.852 195.101 233.266 195.688C232.69 196.275 231.842 196.568 230.722 196.568ZM230.466 191.992C231.298 191.992 231.954 191.715 232.434 191.16C232.924 190.605 233.17 189.827 233.17 188.824C233.17 187.832 232.924 187.059 232.434 186.504C231.954 185.949 231.298 185.672 230.466 185.672C229.634 185.672 228.972 185.949 228.482 186.504C227.991 187.059 227.746 187.832 227.746 188.824C227.746 189.827 227.991 190.605 228.482 191.16C228.972 191.715 229.634 191.992 230.466 191.992ZM236.781 193V181.224H237.757V186.84H237.565C237.789 186.189 238.168 185.693 238.701 185.352C239.234 185.011 239.853 184.84 240.557 184.84C241.528 184.84 242.242 185.096 242.701 185.608C243.17 186.12 243.405 186.888 243.405 187.912V193H242.429V187.992C242.429 187.181 242.269 186.595 241.949 186.232C241.629 185.869 241.117 185.688 240.413 185.688C239.613 185.688 238.968 185.933 238.477 186.424C237.997 186.915 237.757 187.565 237.757 188.376V193H236.781ZM248.623 193.128C247.908 193.128 247.359 192.915 246.975 192.488C246.602 192.061 246.415 191.405 246.415 190.52V185.768H244.815V184.984H246.415V182.744L247.391 182.424V184.984H249.759V185.768H247.391V190.376C247.391 191.048 247.498 191.533 247.711 191.832C247.924 192.131 248.266 192.28 248.735 192.28C248.948 192.28 249.135 192.259 249.295 192.216C249.466 192.173 249.61 192.125 249.727 192.072V192.936C249.599 192.989 249.434 193.032 249.231 193.064C249.028 193.107 248.826 193.128 248.623 193.128ZM254.014 193.128C253.395 193.128 252.814 193.037 252.27 192.856C251.736 192.675 251.294 192.424 250.942 192.104L251.326 191.384C251.72 191.704 252.147 191.944 252.606 192.104C253.064 192.253 253.544 192.328 254.046 192.328C254.728 192.328 255.246 192.2 255.598 191.944C255.95 191.688 256.126 191.341 256.126 190.904C256.126 190.563 256.014 190.285 255.79 190.072C255.566 189.859 255.192 189.699 254.67 189.592L253.23 189.288C252.547 189.128 252.035 188.872 251.694 188.52C251.363 188.168 251.198 187.725 251.198 187.192C251.198 186.733 251.315 186.328 251.55 185.976C251.795 185.624 252.142 185.347 252.59 185.144C253.038 184.941 253.566 184.84 254.174 184.84C254.75 184.84 255.278 184.936 255.758 185.128C256.248 185.309 256.648 185.571 256.958 185.912L256.542 186.616C256.222 186.296 255.859 186.056 255.454 185.896C255.059 185.736 254.638 185.656 254.19 185.656C253.528 185.656 253.027 185.795 252.686 186.072C252.344 186.339 252.174 186.696 252.174 187.144C252.174 187.485 252.28 187.768 252.494 187.992C252.707 188.205 253.043 188.365 253.502 188.472L254.942 188.792C255.667 188.952 256.206 189.197 256.558 189.528C256.91 189.859 257.086 190.296 257.086 190.84C257.086 191.309 256.958 191.72 256.702 192.072C256.446 192.413 256.088 192.675 255.63 192.856C255.171 193.037 254.632 193.128 254.014 193.128ZM263.39 193V186.856C263.39 186.547 263.379 186.237 263.358 185.928C263.347 185.608 263.321 185.293 263.278 184.984H264.238L264.366 186.824L264.174 186.84C264.281 186.392 264.473 186.024 264.75 185.736C265.027 185.437 265.347 185.213 265.71 185.064C266.073 184.915 266.446 184.84 266.83 184.84C266.969 184.84 267.097 184.851 267.214 184.872C267.342 184.883 267.459 184.904 267.566 184.936L267.534 185.816C267.406 185.773 267.278 185.747 267.15 185.736C267.022 185.725 266.883 185.72 266.734 185.72C266.254 185.72 265.833 185.837 265.47 186.072C265.118 186.307 264.846 186.605 264.654 186.968C264.462 187.331 264.366 187.699 264.366 188.072V193H263.39ZM272.331 193.128C271.115 193.128 270.149 192.765 269.435 192.04C268.731 191.315 268.379 190.307 268.379 189.016C268.379 188.163 268.533 187.427 268.843 186.808C269.163 186.189 269.605 185.709 270.171 185.368C270.736 185.016 271.392 184.84 272.139 184.84C272.853 184.84 273.456 184.995 273.947 185.304C274.437 185.603 274.816 186.035 275.083 186.6C275.349 187.155 275.483 187.816 275.483 188.584V189.032H269.083V188.328H274.875L274.603 188.536C274.603 187.629 274.395 186.92 273.979 186.408C273.563 185.885 272.944 185.624 272.123 185.624C271.248 185.624 270.565 185.928 270.075 186.536C269.584 187.133 269.339 187.928 269.339 188.92V189.032C269.339 190.099 269.6 190.909 270.123 191.464C270.656 192.019 271.397 192.296 272.347 192.296C272.837 192.296 273.296 192.221 273.723 192.072C274.149 191.923 274.56 191.667 274.955 191.304L275.355 192.024C275.013 192.376 274.571 192.648 274.027 192.84C273.483 193.032 272.917 193.128 272.331 193.128ZM280.17 193.128C279.551 193.128 278.97 193.037 278.426 192.856C277.893 192.675 277.45 192.424 277.098 192.104L277.482 191.384C277.877 191.704 278.303 191.944 278.762 192.104C279.221 192.253 279.701 192.328 280.202 192.328C280.885 192.328 281.402 192.2 281.754 191.944C282.106 191.688 282.282 191.341 282.282 190.904C282.282 190.563 282.17 190.285 281.946 190.072C281.722 189.859 281.349 189.699 280.826 189.592L279.386 189.288C278.703 189.128 278.191 188.872 277.85 188.52C277.519 188.168 277.354 187.725 277.354 187.192C277.354 186.733 277.471 186.328 277.706 185.976C277.951 185.624 278.298 185.347 278.746 185.144C279.194 184.941 279.722 184.84 280.33 184.84C280.906 184.84 281.434 184.936 281.914 185.128C282.405 185.309 282.805 185.571 283.114 185.912L282.698 186.616C282.378 186.296 282.015 186.056 281.61 185.896C281.215 185.736 280.794 185.656 280.346 185.656C279.685 185.656 279.183 185.795 278.842 186.072C278.501 186.339 278.33 186.696 278.33 187.144C278.33 187.485 278.437 187.768 278.65 187.992C278.863 188.205 279.199 188.365 279.658 188.472L281.098 188.792C281.823 188.952 282.362 189.197 282.714 189.528C283.066 189.859 283.242 190.296 283.242 190.84C283.242 191.309 283.114 191.72 282.858 192.072C282.602 192.413 282.245 192.675 281.786 192.856C281.327 193.037 280.789 193.128 280.17 193.128ZM288.924 193.128C287.708 193.128 286.743 192.765 286.028 192.04C285.324 191.315 284.972 190.307 284.972 189.016C284.972 188.163 285.127 187.427 285.436 186.808C285.756 186.189 286.199 185.709 286.764 185.368C287.33 185.016 287.986 184.84 288.732 184.84C289.447 184.84 290.05 184.995 290.54 185.304C291.031 185.603 291.41 186.035 291.676 186.6C291.943 187.155 292.076 187.816 292.076 188.584V189.032H285.676V188.328H291.468L291.196 188.536C291.196 187.629 290.988 186.92 290.572 186.408C290.156 185.885 289.538 185.624 288.716 185.624C287.842 185.624 287.159 185.928 286.668 186.536C286.178 187.133 285.932 187.928 285.932 188.92V189.032C285.932 190.099 286.194 190.909 286.716 191.464C287.25 192.019 287.991 192.296 288.94 192.296C289.431 192.296 289.89 192.221 290.316 192.072C290.743 191.923 291.154 191.667 291.548 191.304L291.948 192.024C291.607 192.376 291.164 192.648 290.62 192.84C290.076 193.032 289.511 193.128 288.924 193.128ZM294.156 193V186.856C294.156 186.547 294.145 186.237 294.124 185.928C294.113 185.608 294.086 185.293 294.044 184.984H295.004L295.132 186.824L294.94 186.84C295.046 186.392 295.238 186.024 295.516 185.736C295.793 185.437 296.113 185.213 296.476 185.064C296.838 184.915 297.212 184.84 297.596 184.84C297.734 184.84 297.862 184.851 297.98 184.872C298.108 184.883 298.225 184.904 298.332 184.936L298.3 185.816C298.172 185.773 298.044 185.747 297.916 185.736C297.788 185.725 297.649 185.72 297.5 185.72C297.02 185.72 296.598 185.837 296.236 186.072C295.884 186.307 295.612 186.605 295.42 186.968C295.228 187.331 295.132 187.699 295.132 188.072V193H294.156ZM302.602 193L299.194 184.984H300.282L303.322 192.392H302.906L305.978 184.984H307.018L303.61 193H302.602ZM311.987 193.128C310.771 193.128 309.805 192.765 309.091 192.04C308.387 191.315 308.035 190.307 308.035 189.016C308.035 188.163 308.189 187.427 308.499 186.808C308.819 186.189 309.261 185.709 309.827 185.368C310.392 185.016 311.048 184.84 311.795 184.84C312.509 184.84 313.112 184.995 313.603 185.304C314.093 185.603 314.472 186.035 314.739 186.6C315.005 187.155 315.139 187.816 315.139 188.584V189.032H308.739V188.328H314.531L314.259 188.536C314.259 187.629 314.051 186.92 313.635 186.408C313.219 185.885 312.6 185.624 311.779 185.624C310.904 185.624 310.221 185.928 309.731 186.536C309.24 187.133 308.995 187.928 308.995 188.92V189.032C308.995 190.099 309.256 190.909 309.779 191.464C310.312 192.019 311.053 192.296 312.003 192.296C312.493 192.296 312.952 192.221 313.379 192.072C313.805 191.923 314.216 191.667 314.611 191.304L315.011 192.024C314.669 192.376 314.227 192.648 313.683 192.84C313.139 193.032 312.573 193.128 311.987 193.128ZM320.258 193.128C319.544 193.128 318.92 192.963 318.386 192.632C317.853 192.301 317.442 191.827 317.154 191.208C316.866 190.589 316.722 189.848 316.722 188.984C316.722 188.12 316.866 187.384 317.154 186.776C317.442 186.157 317.853 185.683 318.386 185.352C318.92 185.011 319.544 184.84 320.258 184.84C320.994 184.84 321.629 185.032 322.162 185.416C322.706 185.789 323.069 186.307 323.25 186.968H323.058V181.224H324.034V193H323.074V190.984H323.25C323.069 191.656 322.706 192.184 322.162 192.568C321.629 192.941 320.994 193.128 320.258 193.128ZM320.386 192.296C321.197 192.296 321.848 192.013 322.338 191.448C322.84 190.883 323.09 190.061 323.09 188.984C323.09 187.907 322.84 187.085 322.338 186.52C321.848 185.955 321.197 185.672 320.386 185.672C319.576 185.672 318.925 185.955 318.434 186.52C317.954 187.085 317.714 187.907 317.714 188.984C317.714 190.061 317.954 190.883 318.434 191.448C318.925 192.013 319.576 192.296 320.386 192.296Z" fill="white"/>
</svg>
